SplineFontDB: 3.2
FontName: Untitled1
FullName: Untitled1
FamilyName: Untitled1
Weight: Regular
Copyright: Copyright (c) 2021, Una Ada
UComments: "2021-5-31: Created with FontForge (http://fontforge.org)"
Version: 001.000
ItalicAngle: 0
UnderlinePosition: -100
UnderlineWidth: 50
Ascent: 760
Descent: 240
InvalidEm: 0
LayerCount: 2
Layer: 0 0 "Back" 1
Layer: 1 0 "Fore" 0
XUID: [1021 374 -1678095732 4566278]
OS2Version: 0
OS2_WeightWidthSlopeOnly: 0
OS2_UseTypoMetrics: 1
CreationTime: 1622498915
ModificationTime: 1622501600
OS2TypoAscent: 0
OS2TypoAOffset: 1
OS2TypoDescent: 0
OS2TypoDOffset: 1
OS2TypoLinegap: 0
OS2WinAscent: 0
OS2WinAOffset: 1
OS2WinDescent: 0
OS2WinDOffset: 1
HheadAscent: 0
HheadAOffset: 1
HheadDescent: 0
HheadDOffset: 1
OS2Vendor: 'PfEd'
MarkAttachClasses: 1
DEI: 91125
Encoding: ISO8859-1
UnicodeInterp: none
NameList: AGL For New Fonts
DisplaySize: -48
AntiAlias: 1
FitToEm: 0
WinInfo: 0 32 16
BeginPrivate: 0
EndPrivate
BeginChars: 256 94

StartChar: exclam
Encoding: 33 33 0
Width: 1000
Flags: H
LayerCount: 2
Fore
SplineSet
507 81 m 0
 486 81 466 93 457 113 c 0
 451 126 436 158 421 407 c 0
 414 522 409 641 409 693 c 0
 409 698 409 702 409 706 c 0
 409 736 435 760 465 760 c 0
 495 760 519 734 519 704 c 0
 519 701 519 697 519 692 c 0
 519 643 524 529 530 420 c 0
 543 204 555 164 557 159 c 0
 560 152 562 144 562 137 c 0
 562 116 550 96 530 86 c 0
 522 82 515 81 507 81 c 0
581 45 m 0
 587 35 591 25 591 14 c 0
 591 -3 582 -20 567 -31 c 2
 545 -46 l 2
 536 -52 525 -55 514 -55 c 0
 496 -55 480 -47 469 -31 c 0
 463 -22 460 -11 460 -0 c 0
 460 18 468 35 484 46 c 2
 505 60 l 2
 514 66 525 69 535 69 c 0
 553 69 570 61 581 45 c 0
EndSplineSet
Validated: 1
EndChar

StartChar: quotedbl
Encoding: 34 34 1
Width: 1000
Flags: H
LayerCount: 2
Fore
SplineSet
476 630 m 0
 488 598 498 564 505 531 c 0
 506 527 506 524 506 520 c 0
 506 494 488 471 462 466 c 0
 458 465 455 465 451 465 c 0
 425 465 402 482 397 508 c 0
 385 564 363 625 342 654 c 0
 335 664 331 676 331 687 c 0
 331 704 339 720 354 731 c 0
 364 738 375 741 386 741 c 0
 403 741 420 733 431 718 c 0
 447 696 462 666 476 630 c 0
663 592 m 0
 667 584 668 576 668 568 c 0
 668 547 657 527 638 518 c 0
 630 514 622 513 614 513 c 0
 594 513 574 524 564 544 c 0
 557 558 551 573 544 589 c 0
 531 620 516 654 503 671 c 0
 495 681 491 694 491 706 c 0
 491 722 497 737 511 748 c 0
 521 756 533 760 545 760 c 0
 561 760 578 753 589 739 c 0
 611 711 628 671 645 632 c 0
 651 617 657 604 663 592 c 0
EndSplineSet
Validated: 1
EndChar

StartChar: numbersign
Encoding: 35 35 2
Width: 1000
Flags: H
LayerCount: 2
Fore
SplineSet
660 314 m 0
 651 313 642 313 633 312 c 1
 631 295 629 277 627 259 c 1
 651 255 670 235 673 210 c 0
 673 208 673 207 673 205 c 0
 673 177 652 153 624 150 c 0
 619 149 614 148 609 148 c 1
 603 118 597 88 590 56 c 0
 584 30 561 12 536 12 c 0
 532 12 528 13 524 14 c 0
 498 19 481 41 481 67 c 0
 481 71 481 75 482 79 c 0
 487 102 492 124 496 145 c 1
 486 145 475 144 465 144 c 1
 463 126 461 108 460 90 c 0
 458 61 434 38 405 38 c 0
 404 38 402 39 401 39 c 0
 372 41 350 65 350 93 c 0
 350 106 352 120 353 133 c 1
 350 133 348 133 345 133 c 0
 319 133 296 151 291 178 c 0
 290 181 290 185 290 188 c 0
 290 214 308 238 335 242 c 0
 347 244 358 246 369 247 c 1
 371 256 372 265 374 274 c 0
 376 285 377 295 379 305 c 1
 374 305 370 305 365 305 c 0
 336 306 312 331 312 360 c 0
 312 391 337 415 367 415 c 0
 368 415 368 415 369 415 c 0
 378 415 386 415 394 415 c 1
 396 435 397 454 397 473 c 0
 397 503 422 528 452 528 c 0
 482 528 507 503 507 473 c 0
 507 454 505 434 504 415 c 1
 511 415 519 416 526 416 c 1
 526 429 525 441 524 454 c 0
 524 456 524 457 524 459 c 0
 524 487 546 511 574 514 c 0
 576 514 577 514 579 514 c 0
 607 514 630 492 633 464 c 0
 634 450 636 436 636 422 c 1
 641 422 645 424 650 424 c 0
 652 424 653 424 655 424 c 0
 683 424 707 402 710 374 c 0
 710 372 710 371 710 369 c 0
 710 341 688 317 660 314 c 0
515 255 m 1
 517 272 519 290 521 306 c 1
 511 306 501 305 491 305 c 1
 488 288 485 271 482 255 c 1
 493 255 504 255 515 255 c 1
EndSplineSet
Validated: 1
EndChar

StartChar: dollar
Encoding: 36 36 3
Width: 1000
Flags: H
LayerCount: 2
Fore
SplineSet
701 159 m 0
 708 137 710 117 710 99 c 0
 710 52 691 21 672 2 c 0
 654 -16 632 -29 603 -38 c 1
 598 -84 589 -158 576 -201 c 0
 569 -225 547 -240 523 -240 c 0
 518 -240 513 -240 508 -238 c 0
 484 -231 469 -209 469 -185 c 0
 469 -180 469 -174 471 -169 c 0
 479 -142 486 -92 491 -50 c 1
 480 -50 469 -49 458 -48 c 0
 391 -42 333 -28 331 -27 c 0
 307 -20 290 3 290 27 c 0
 290 32 291 36 292 41 c 0
 299 65 321 82 345 82 c 0
 350 82 354 81 359 80 c 2
 359 80 411 66 469 61 c 0
 483 60 496 59 508 59 c 0
 557 59 584 69 594 79 c 0
 599 84 600 90 600 98 c 0
 600 108 598 119 595 128 c 0
 583 171 562 202 529 225 c 0
 498 247 462 258 427 270 c 0
 396 280 367 290 343 306 c 0
 298 335 290 375 290 403 c 0
 290 433 302 476 355 514 c 0
 377 530 403 543 436 555 c 1
 431 615 425 662 419 695 c 0
 418 699 418 702 418 706 c 0
 418 732 437 754 463 759 c 0
 467 760 470 760 474 760 c 0
 500 760 522 741 527 715 c 0
 533 682 539 639 544 585 c 1
 578 592 602 595 604 595 c 0
 606 595 607 595 609 595 c 0
 637 595 662 574 665 546 c 0
 665 544 665 543 665 541 c 0
 665 513 644 488 616 485 c 0
 615 485 565 479 511 464 c 0
 510 464 510 463 509 463 c 0
 504 462 498 461 493 459 c 0
 425 437 400 412 400 401 c 0
 401 400 405 396 415 392 c 0
 427 386 443 381 461 375 c 0
 500 362 548 346 592 315 c 0
 617 297 639 276 656 252 c 0
 676 225 691 194 701 159 c 0
EndSplineSet
Validated: 1
EndChar

StartChar: percent
Encoding: 37 37 4
Width: 1000
Flags: H
LayerCount: 2
Fore
SplineSet
691 719 m 0
 702 708 707 695 707 681 c 0
 707 671 704 661 699 652 c 0
 562 426 468 222 422 48 c 0
 415 23 393 8 369 8 c 0
 364 8 360 8 355 9 c 0
 331 16 314 39 314 63 c 0
 314 68 315 72 316 77 c 0
 358 236 436 416 549 614 c 1
 532 616 514 619 498 623 c 1
 498 621 499 618 499 616 c 0
 499 590 492 568 479 549 c 0
 461 523 432 507 400 507 c 0
 367 507 337 522 316 549 c 0
 299 571 290 600 290 629 c 0
 290 657 297 686 309 708 c 0
 327 741 357 760 390 760 c 0
 412 760 439 753 472 744 c 0
 502 736 535 727 566 723 c 0
 575 722 583 722 590 722 c 0
 609 722 620 725 624 728 c 0
 633 733 643 736 652 736 c 0
 666 736 680 730 691 719 c 0
664 186 m 1
 666 182 668 177 670 172 c 0
 679 149 685 122 685 99 c 0
 685 66 675 32 659 5 c 0
 636 -33 600 -55 559 -55 c 0
 523 -55 491 -37 472 -6 c 0
 457 18 450 50 450 88 c 0
 450 129 463 168 485 199 c 0
 505 226 542 260 610 268 c 0
 612 268 614 268 616 268 c 0
 644 268 668 248 671 220 c 0
 671 218 671 216 671 214 c 0
 671 204 669 194 664 186 c 1
568 68 m 0
 572 77 575 89 575 99 c 0
 575 103 575 113 571 124 c 0
 571 125 569 127 569 128 c 1
 563 117 560 103 560 88 c 0
 560 74 561 65 563 59 c 1
 565 61 566 64 568 68 c 0
EndSplineSet
Validated: 1
EndChar

StartChar: ampersand
Encoding: 38 38 5
Width: 1000
Flags: H
LayerCount: 2
Fore
SplineSet
686 169 m 0
 702 158 710 141 710 123 c 0
 710 113 707 102 701 93 c 0
 688 74 668 55 642 39 c 0
 620 25 594 13 566 4 c 0
 551 -1 537 -5 522 -8 c 1
 540 -14 553 -30 557 -50 c 0
 561 -74 564 -98 564 -122 c 0
 564 -146 561 -171 557 -195 c 0
 552 -221 529 -240 503 -240 c 0
 500 -240 496 -240 493 -239 c 0
 467 -234 448 -212 448 -186 c 0
 448 -182 448 -179 449 -175 c 0
 453 -157 454 -140 454 -122 c 0
 454 -104 453 -88 449 -70 c 0
 448 -67 448 -63 448 -60 c 0
 448 -42 457 -25 471 -15 c 1
 466 -15 462 -15 457 -15 c 0
 434 -15 412 -12 393 -6 c 0
 328 14 290 66 290 137 c 0
 290 191 320 242 375 281 c 1
 372 282 370 284 367 286 c 0
 349 296 335 308 325 322 c 0
 311 340 305 361 305 383 c 0
 305 409 315 437 335 465 c 0
 351 488 372 509 397 528 c 0
 421 546 448 560 474 570 c 1
 448 575 429 598 429 625 c 0
 429 639 423 654 410 671 c 0
 402 681 398 693 398 705 c 0
 398 721 405 737 419 748 c 0
 429 756 441 760 453 760 c 0
 469 760 486 753 497 739 c 0
 525 703 539 666 539 627 c 0
 539 607 532 593 519 582 c 1
 528 583 536 584 545 584 c 0
 562 584 578 582 593 577 c 0
 617 570 632 548 632 524 c 0
 632 519 631 514 630 509 c 0
 623 485 601 469 577 469 c 0
 572 469 567 470 562 471 c 0
 557 472 552 473 546 473 c 0
 525 473 500 464 475 448 c 0
 439 425 420 397 416 385 c 1
 423 379 447 367 500 358 c 0
 544 351 586 350 586 350 c 2
 615 350 640 325 640 295 c 0
 640 267 617 242 589 240 c 0
 534 236 482 220 445 196 c 0
 416 177 400 155 400 137 c 0
 400 111 409 104 425 99 c 0
 434 96 444 95 456 95 c 0
 478 95 505 100 531 108 c 0
 571 121 600 142 609 155 c 0
 620 170 637 179 655 179 c 0
 666 179 676 175 686 169 c 0
EndSplineSet
Validated: 1
EndChar

StartChar: quotesingle
Encoding: 39 39 6
Width: 1000
Flags: H
LayerCount: 2
Fore
SplineSet
573 555 m 0
 573 527 550 502 521 500 c 0
 520 500 519 500 518 500 c 0
 489 500 465 523 463 552 c 0
 460 608 450 650 434 678 c 0
 429 686 427 695 427 704 c 0
 427 723 437 743 455 753 c 0
 463 758 472 760 481 760 c 0
 500 760 520 750 530 732 c 0
 554 690 573 629 573 555 c 0
EndSplineSet
Validated: 1
EndChar

StartChar: parenleft
Encoding: 40 40 7
Width: 1000
Flags: H
LayerCount: 2
Fore
SplineSet
701 735 m 0
 707 725 710 714 710 704 c 0
 710 686 701 669 685 659 c 0
 577 590 490 478 441 345 c 0
 419 285 405 222 401 163 c 0
 400 151 400 139 400 128 c 0
 400 83 406 42 418 6 c 0
 433 -40 457 -75 489 -98 c 0
 519 -120 556 -130 599 -130 c 0
 605 -130 611 -129 617 -129 c 0
 618 -129 619 -129 620 -129 c 0
 649 -129 675 -154 675 -185 c 0
 675 -213 653 -237 624 -239 c 0
 615 -240 607 -240 598 -240 c 0
 531 -240 473 -222 424 -187 c 0
 398 -168 375 -145 356 -117 c 0
 338 -91 325 -61 314 -28 c 0
 298 20 290 74 290 131 c 0
 290 212 306 299 338 384 c 0
 396 539 497 669 625 751 c 0
 635 757 646 760 656 760 c 0
 674 760 691 751 701 735 c 0
EndSplineSet
Validated: 1
EndChar

StartChar: parenright
Encoding: 41 41 8
Width: 1000
Flags: H
LayerCount: 2
Fore
SplineSet
710 266 m 0
 710 264 710 263 710 261 c 0
 710 165 682 69 628 -17 c 0
 573 -105 493 -179 397 -233 c 0
 389 -238 379 -240 370 -240 c 0
 351 -240 332 -230 322 -212 c 0
 317 -203 315 -194 315 -185 c 0
 315 -166 325 -147 343 -137 c 0
 423 -92 490 -31 535 41 c 0
 578 109 600 186 600 260 c 0
 600 337 577 409 533 474 c 0
 485 546 413 607 319 656 c 0
 300 666 290 685 290 705 c 0
 290 714 292 723 296 731 c 0
 306 750 325 760 345 760 c 0
 354 760 363 758 371 754 c 0
 481 696 567 622 625 535 c 0
 653 494 674 449 688 403 c 0
 702 359 709 313 710 266 c 0
EndSplineSet
Validated: 1
EndChar

StartChar: asterisk
Encoding: 42 42 9
Width: 1000
Flags: H
LayerCount: 2
Fore
SplineSet
665 374 m 0
 692 370 710 347 710 321 c 0
 710 318 710 314 709 311 c 0
 704 284 681 265 655 265 c 0
 652 265 648 265 645 266 c 0
 638 267 628 269 615 270 c 1
 622 260 628 249 635 239 c 0
 641 230 644 220 644 210 c 0
 644 192 635 174 619 163 c 0
 610 157 599 154 589 154 c 0
 571 154 554 163 543 179 c 0
 535 191 528 202 520 214 c 0
 514 224 507 233 501 243 c 1
 488 225 475 209 464 194 c 0
 453 180 437 172 421 172 c 0
 409 172 397 176 387 184 c 0
 373 195 366 211 366 227 c 0
 366 239 370 251 378 261 c 0
 382 266 385 272 389 277 c 1
 382 277 374 277 367 277 c 2
 344 277 l 2
 314 277 290 303 290 333 c 0
 290 363 315 387 345 387 c 0
 346 387 l 2
 369 387 l 2
 379 387 389 386 399 386 c 1
 390 397 381 406 373 412 c 0
 359 423 353 439 353 455 c 0
 353 467 357 480 365 490 c 0
 376 504 391 510 407 510 c 0
 419 510 432 506 442 498 c 0
 460 484 479 463 499 438 c 1
 525 477 550 511 571 536 c 0
 582 549 598 555 613 555 c 0
 625 555 638 551 648 542 c 0
 661 531 668 515 668 499 c 0
 668 487 664 474 655 464 c 0
 638 444 617 414 594 381 c 1
 624 379 649 377 665 374 c 0
EndSplineSet
Validated: 1
EndChar

StartChar: plus
Encoding: 43 43 10
Width: 1000
Flags: H
LayerCount: 2
Fore
SplineSet
656 418 m 0
 685 417 710 393 710 364 c 0
 710 333 685 308 655 308 c 2
 654 308 l 0
 647 308 641 308 634 308 c 0
 603 308 570 306 536 304 c 1
 538 274 544 247 554 229 c 0
 559 221 561 212 561 203 c 0
 561 184 551 164 533 154 c 0
 524 149 515 147 506 147 c 0
 487 147 468 157 458 175 c 0
 438 210 430 251 427 294 c 1
 401 291 375 288 352 285 c 0
 349 285 347 284 345 284 c 0
 318 284 295 304 291 332 c 0
 291 334 291 337 291 339 c 0
 291 366 310 390 338 394 c 0
 364 398 392 401 423 404 c 1
 422 434 421 464 416 490 c 0
 415 493 415 496 415 499 c 0
 415 525 434 550 461 554 c 0
 464 555 468 555 471 555 c 0
 497 555 521 537 525 510 c 0
 530 479 532 446 533 414 c 1
 568 416 602 418 635 418 c 0
 642 418 649 418 656 418 c 0
EndSplineSet
Validated: 1
EndChar

StartChar: comma
Encoding: 44 44 11
Width: 1000
Flags: H
LayerCount: 2
Fore
SplineSet
456 62 m 2
 461 87 484 105 510 105 c 0
 537 105 560 85 564 59 c 0
 566 47 567 35 567 22 c 0
 567 -12 558 -51 530 -85 c 0
 520 -97 505 -105 488 -105 c 0
 458 -105 433 -80 433 -50 c 0
 433 -46 433 -42 434 -38 c 2
 456 62 l 2
EndSplineSet
Validated: 1
EndChar

StartChar: hyphen
Encoding: 45 45 12
Width: 1000
Flags: H
LayerCount: 2
Fore
SplineSet
657 408 m 0
 686 407 710 382 710 353 c 0
 710 322 684 298 655 298 c 0
 654 298 654 298 653 298 c 0
 643 298 632 299 620 299 c 0
 560 302 473 305 380 305 c 0
 369 305 357 305 346 305 c 0
 316 305 290 329 290 359 c 0
 290 389 314 415 344 415 c 0
 356 415 367 415 378 415 c 0
 473 415 563 412 624 409 c 0
 636 409 647 408 657 408 c 0
EndSplineSet
Validated: 1
EndChar

StartChar: period
Encoding: 46 46 13
Width: 1000
Flags: H
LayerCount: 2
Fore
SplineSet
499 57 m 2
 528 50 l 2
 552 44 570 23 570 -3 c 0
 570 -33 545 -58 515 -58 c 0
 511 -58 506 -58 502 -57 c 2
 473 -50 l 2
 449 -44 431 -23 431 3 c 0
 431 33 456 58 486 58 c 0
 490 58 495 58 499 57 c 2
EndSplineSet
Validated: 1
EndChar

StartChar: slash
Encoding: 47 47 14
Width: 1000
Flags: H
LayerCount: 2
Fore
SplineSet
669 758 m 0
 693 751 710 729 710 705 c 0
 710 700 709 696 708 691 c 0
 681 585 613 453 548 325 c 0
 486 203 421 78 398 -13 c 0
 392 -38 370 -55 345 -55 c 0
 341 -55 337 -54 332 -53 c 0
 307 -47 290 -25 290 0 c 0
 290 4 291 9 292 13 c 0
 318 117 382 243 450 376 c 0
 513 498 578 625 602 719 c 0
 609 743 631 760 655 760 c 0
 660 760 664 759 669 758 c 0
EndSplineSet
Validated: 1
EndChar

StartChar: zero
Encoding: 48 48 15
Width: 1000
Flags: H
LayerCount: 2
Fore
SplineSet
684 533 m 0
 701 486 710 433 710 379 c 0
 710 376 710 373 710 370 c 0
 708 289 681 201 635 128 c 0
 613 93 587 62 560 41 c 0
 527 14 492 1 458 0 c 0
 457 0 457 0 456 0 c 0
 424 0 394 12 370 36 c 0
 341 65 319 111 305 172 c 0
 292 231 290 279 290 303 c 0
 290 359 310 444 342 521 c 0
 359 562 379 599 398 627 c 0
 424 665 451 689 480 700 c 0
 486 702 493 704 499 704 c 0
 521 704 542 690 551 668 c 0
 552 665 553 662 554 659 c 0
 566 658 577 654 585 651 c 0
 627 634 661 593 684 533 c 0
600 372 m 0
 600 375 600 377 600 380 c 0
 600 420 593 462 581 495 c 0
 568 529 552 545 543 549 c 0
 542 549 541 550 540 550 c 0
 531 550 516 540 500 522 c 0
 489 510 475 505 460 505 c 0
 459 505 456 505 455 505 c 0
 451 497 448 488 444 479 c 0
 419 417 400 346 400 304 c 0
 400 287 400 246 412 196 c 0
 424 142 440 121 446 115 c 0
 451 110 454 110 456 110 c 0
 474 110 509 135 542 187 c 0
 577 242 599 311 600 372 c 0
EndSplineSet
Validated: 1
EndChar

StartChar: one
Encoding: 49 49 16
Width: 1000
Flags: H
LayerCount: 2
Fore
SplineSet
657 107 m 0
 686 106 710 81 710 52 c 0
 710 21 685 -3 655 -3 c 0
 654 -3 654 -3 653 -3 c 0
 636 -2 611 -2 582 -2 c 0
 519 -2 433 -4 347 -7 c 0
 346 -7 346 -7 345 -7 c 0
 316 -7 290 16 290 47 c 0
 290 76 314 102 343 103 c 0
 382 105 421 105 458 106 c 1
 468 274 484 443 501 571 c 1
 474 562 449 555 426 551 c 0
 422 550 419 550 415 550 c 0
 389 550 367 569 362 595 c 0
 361 599 361 602 361 606 c 0
 361 632 380 654 406 659 c 0
 445 666 492 682 547 707 c 0
 555 710 562 712 570 712 c 0
 582 712 593 708 603 701 c 0
 617 691 624 674 624 657 c 0
 624 654 623 651 623 648 c 0
 601 524 581 316 568 108 c 1
 605 108 636 108 657 107 c 0
EndSplineSet
Validated: 1
EndChar

StartChar: two
Encoding: 50 50 17
Width: 1000
Flags: H
LayerCount: 2
Fore
SplineSet
709 81 m 0
 710 78 710 75 710 72 c 0
 710 46 691 22 664 18 c 0
 596 7 536 1 487 1 c 0
 483 1 481 1 477 1 c 0
 414 2 371 13 343 34 c 0
 324 48 312 66 308 87 c 0
 306 95 305 103 305 111 c 0
 305 142 319 175 335 203 c 0
 355 239 384 281 417 330 c 0
 463 397 517 478 560 560 c 1
 544 564 523 569 495 572 c 0
 471 575 444 576 418 576 c 0
 395 576 371 575 350 573 c 0
 348 573 347 573 345 573 c 0
 317 573 293 594 290 622 c 0
 290 624 290 625 290 627 c 0
 290 655 312 679 340 682 c 0
 365 684 392 686 419 686 c 0
 449 686 479 684 507 681 c 0
 579 673 633 656 667 631 c 0
 682 621 690 604 690 587 c 0
 690 580 688 572 685 565 c 0
 637 457 565 352 508 268 c 0
 481 228 457 193 440 164 c 0
 426 140 420 126 417 119 c 1
 426 116 445 112 480 111 c 0
 483 111 487 111 490 111 c 0
 533 111 586 117 646 126 c 0
 649 127 652 127 655 127 c 0
 681 127 705 108 709 81 c 0
EndSplineSet
Validated: 1
EndChar

StartChar: three
Encoding: 51 51 18
Width: 1000
Flags: H
LayerCount: 2
Fore
SplineSet
699 244 m 0
 707 215 710 185 710 155 c 0
 710 142 709 129 708 116 c 0
 703 69 676 33 633 14 c 0
 609 4 584 -1 559 -1 c 0
 531 -1 504 5 483 10 c 0
 432 23 379 47 335 79 c 0
 320 90 312 106 312 123 c 0
 312 134 316 146 323 156 c 0
 334 171 350 179 367 179 c 0
 378 179 390 175 400 168 c 0
 432 144 472 126 510 116 c 0
 528 112 545 109 560 109 c 0
 572 109 582 111 589 114 c 0
 595 117 598 120 599 129 c 0
 600 136 600 144 600 152 c 0
 600 174 597 196 592 218 c 0
 584 250 571 276 554 295 c 0
 535 317 512 327 484 328 c 0
 462 329 443 342 435 362 c 0
 432 369 431 376 431 383 c 0
 431 397 436 410 446 421 c 0
 467 443 493 461 519 478 c 0
 544 495 571 512 583 529 c 0
 586 534 589 538 589 544 c 0
 589 549 588 555 584 563 c 0
 575 583 563 589 554 592 c 0
 548 594 541 594 534 594 c 0
 518 594 499 591 478 584 c 0
 447 574 411 557 374 534 c 0
 365 528 354 525 344 525 c 0
 326 525 308 534 298 551 c 0
 292 560 290 570 290 580 c 0
 290 599 299 617 316 627 c 0
 361 655 404 676 444 689 c 0
 476 699 506 704 533 704 c 0
 552 704 569 702 585 697 c 0
 629 684 662 654 683 610 c 0
 694 588 699 566 699 544 c 0
 699 516 690 488 671 463 c 0
 652 438 627 419 601 401 c 1
 614 392 626 381 637 368 c 0
 665 336 687 292 699 244 c 0
EndSplineSet
Validated: 1
EndChar

StartChar: four
Encoding: 52 52 19
Width: 1000
Flags: H
LayerCount: 2
Fore
SplineSet
709 64 m 0
 709 61 710 58 710 55 c 0
 710 29 690 6 663 1 c 0
 660 1 658 0 655 0 c 0
 628 0 605 20 601 47 c 0
 592 102 590 164 590 227 c 0
 590 267 591 307 592 346 c 1
 565 339 539 333 520 330 c 0
 493 326 468 324 446 324 c 0
 390 324 348 337 322 364 c 0
 301 386 290 417 290 456 c 0
 290 479 294 505 302 533 c 0
 319 593 352 651 389 688 c 0
 400 699 415 704 429 704 c 0
 443 704 457 699 467 688 c 0
 477 677 483 663 483 649 c 0
 483 635 477 621 466 610 c 0
 444 589 424 552 411 513 c 0
 402 487 399 467 399 454 c 0
 399 448 400 444 401 441 c 1
 406 438 421 434 447 434 c 0
 462 434 480 435 502 439 c 0
 542 445 577 455 596 463 c 1
 597 488 597 512 597 534 c 0
 597 576 596 612 591 640 c 0
 590 643 590 646 590 649 c 0
 590 675 609 700 636 704 c 0
 639 705 642 705 645 705 c 0
 671 705 695 686 699 659 c 0
 705 623 708 578 708 529 c 0
 708 486 706 438 704 390 c 0
 702 336 700 277 700 221 c 0
 700 165 702 111 709 64 c 0
EndSplineSet
Validated: 1
EndChar

StartChar: five
Encoding: 53 53 20
Width: 1000
Flags: H
LayerCount: 2
Fore
SplineSet
703 244 m 0
 703 243 703 240 703 239 c 0
 703 232 703 225 703 219 c 0
 703 181 698 147 689 119 c 0
 676 82 656 53 627 32 c 0
 597 10 559 0 514 -0 c 0
 509 0 503 0 498 0 c 0
 454 2 404 15 348 37 c 0
 336 42 325 51 319 63 c 0
 308 84 305 108 305 126 c 0
 305 129 305 132 305 135 c 0
 306 160 312 185 323 204 c 0
 333 222 352 233 371 233 c 0
 380 233 389 231 398 226 c 0
 416 216 426 197 426 178 c 0
 426 169 424 160 419 151 c 0
 416 146 415 138 415 130 c 1
 449 118 479 111 504 110 c 0
 507 110 510 110 512 110 c 0
 534 110 551 114 563 122 c 0
 578 132 593 157 593 216 c 0
 593 221 593 226 593 232 c 1
 579 325 427 365 336 380 c 0
 321 382 308 391 300 403 c 0
 294 412 290 423 290 435 c 0
 290 438 290 442 291 445 c 0
 299 486 315 530 340 578 c 1
 318 583 301 601 298 624 c 0
 298 626 298 629 298 631 c 0
 298 658 317 682 345 686 c 0
 448 700 540 715 633 755 c 0
 640 758 648 760 655 760 c 0
 676 760 696 748 705 727 c 0
 708 720 710 712 710 705 c 0
 710 684 698 664 677 655 c 0
 610 626 546 609 479 596 c 1
 450 553 429 512 415 476 c 1
 483 460 539 439 583 412 c 0
 616 392 643 368 663 342 c 0
 685 312 699 280 703 244 c 0
EndSplineSet
Validated: 1
EndChar

StartChar: six
Encoding: 54 54 21
Width: 1000
Flags: H
LayerCount: 2
Fore
SplineSet
554 130 m 0
 582 164 600 220 600 272 c 0
 600 278 600 285 599 291 c 0
 595 314 589 324 586 327 c 0
 581 326 564 319 543 291 c 0
 529 271 503 228 498 162 c 0
 497 145 488 131 475 122 c 1
 486 113 500 107 518 106 c 0
 525 107 539 112 554 130 c 0
709 303 m 0
 710 293 710 284 710 274 c 0
 710 241 705 206 696 173 c 0
 683 129 663 90 638 60 c 0
 606 22 567 -1 525 -4 c 0
 524 -4 521 -4 520 -4 c 0
 485 -4 452 6 423 25 c 0
 394 43 370 70 350 104 c 0
 313 169 293 261 290 380 c 0
 290 381 290 381 290 382 c 0
 290 463 305 539 332 602 c 0
 360 668 402 719 453 751 c 0
 462 757 473 760 483 760 c 0
 501 760 519 751 529 734 c 0
 535 725 538 714 538 704 c 0
 538 686 529 669 512 659 c 0
 480 639 452 603 433 558 c 0
 412 509 400 448 400 382 c 0
 401 349 404 309 410 270 c 1
 421 300 434 328 451 352 c 0
 488 404 536 435 583 437 c 0
 584 437 586 437 587 437 c 0
 619 437 648 424 669 399 c 0
 689 377 702 346 708 307 c 0
 708 306 709 304 709 303 c 0
EndSplineSet
Validated: 1
EndChar

StartChar: seven
Encoding: 55 55 22
Width: 1000
Flags: H
LayerCount: 2
Fore
SplineSet
660 386 m 0
 688 383 710 359 710 331 c 0
 710 329 710 328 710 326 c 0
 707 298 683 276 655 276 c 0
 653 276 652 276 650 276 c 0
 630 278 607 279 581 279 c 0
 566 279 550 278 534 278 c 1
 487 179 452 92 441 43 c 0
 435 18 413 0 388 0 c 0
 384 0 379 1 375 2 c 0
 349 8 332 30 332 55 c 0
 332 59 333 64 334 68 c 0
 347 126 378 201 409 270 c 1
 388 268 369 265 353 263 c 0
 350 263 348 262 345 262 c 0
 318 262 295 282 291 309 c 0
 291 312 290 315 290 318 c 0
 290 344 310 367 337 372 c 0
 370 377 416 381 464 384 c 1
 495 445 527 507 559 562 c 1
 479 566 380 576 325 597 c 0
 303 605 290 626 290 648 c 0
 290 655 291 662 294 668 c 0
 303 690 324 704 346 704 c 0
 352 704 359 702 365 700 c 0
 408 683 522 671 656 669 c 0
 676 669 694 658 703 640 c 0
 707 631 710 623 710 614 c 0
 710 604 707 594 701 585 c 0
 662 524 624 455 589 388 c 1
 615 388 640 388 660 386 c 0
EndSplineSet
Validated: 1
EndChar

StartChar: eight
Encoding: 56 56 23
Width: 1000
Flags: H
LayerCount: 2
Fore
SplineSet
640 350 m 0
 688 294 710 247 710 197 c 0
 710 196 l 0
 709 143 687 93 648 54 c 0
 611 17 561 -5 511 -6 c 0
 510 -6 l 0
 509 -6 l 0
 431 -4 363 24 324 70 c 0
 301 96 290 128 290 160 c 0
 290 166 290 172 291 178 c 0
 295 218 312 254 341 287 c 0
 364 314 393 336 423 360 c 0
 432 367 440 374 449 381 c 1
 412 412 368 447 317 486 c 0
 303 496 296 512 296 529 c 0
 296 541 299 553 307 563 c 0
 309 565 310 567 312 569 c 0
 310 572 308 575 306 578 c 0
 301 587 299 596 299 605 c 0
 299 624 309 643 326 653 c 0
 388 688 450 706 507 706 c 0
 537 706 565 701 590 691 c 0
 640 672 676 634 692 585 c 0
 698 566 701 547 701 529 c 0
 701 518 700 507 698 497 c 0
 693 471 682 445 663 421 c 0
 651 405 635 389 618 374 c 1
 626 366 633 358 640 350 c 0
395 565 m 1
 451 522 499 484 538 450 c 1
 577 483 591 505 591 528 c 0
 591 535 590 543 587 551 c 0
 581 569 569 581 550 588 c 0
 537 593 521 596 504 596 c 0
 496 596 488 595 480 594 c 0
 453 590 424 580 395 565 c 1
571 132 m 0
 589 150 600 173 600 197 c 0
 600 206 600 229 557 278 c 0
 549 287 541 296 531 306 c 1
 517 294 504 283 491 273 c 0
 435 229 405 205 401 166 c 0
 401 165 400 164 400 163 c 0
 400 160 398 152 408 141 c 0
 422 124 457 106 510 104 c 0
 531 105 554 115 571 132 c 0
EndSplineSet
Validated: 1
EndChar

StartChar: nine
Encoding: 57 57 24
Width: 1000
Flags: H
LayerCount: 2
Fore
SplineSet
600 466 m 1
 600 493 600 514 598 527 c 0
 593 547 586 563 576 573 c 0
 564 586 542 593 511 596 c 0
 468 596 439 574 426 561 c 0
 408 543 400 524 400 513 c 0
 400 510 400 507 400 504 c 0
 400 471 406 462 427 454 c 0
 439 450 456 447 478 447 c 0
 504 447 539 452 589 465 c 0
 593 466 596 466 600 466 c 1
705 549 m 0
 708 531 710 506 710 477 c 0
 710 332 675 78 670 44 c 0
 666 16 643 -4 616 -4 c 0
 613 -4 611 -3 608 -3 c 0
 580 1 561 25 561 52 c 0
 561 54 561 57 561 59 c 0
 576 166 588 269 594 352 c 1
 551 342 514 337 480 337 c 0
 449 337 420 341 393 349 c 0
 392 349 392 350 391 350 c 0
 348 366 319 393 303 430 c 0
 291 460 290 490 290 515 c 0
 291 558 313 604 350 640 c 0
 371 660 394 676 421 687 c 0
 450 699 482 706 514 706 c 0
 515 706 516 705 517 705 c 0
 577 700 623 682 655 649 c 0
 684 619 696 584 704 553 c 0
 704 552 705 550 705 549 c 0
EndSplineSet
Validated: 1
EndChar

StartChar: colon
Encoding: 58 58 25
Width: 1000
Flags: H
LayerCount: 2
Fore
SplineSet
475 383 m 0
 451 383 430 399 423 423 c 0
 421 428 421 434 421 439 c 0
 421 462 436 484 460 491 c 2
 480 497 l 2
 485 499 491 499 496 499 c 0
 520 499 542 484 549 460 c 0
 551 455 551 449 551 444 c 0
 551 421 536 399 512 392 c 2
 491 386 l 2
 486 384 480 383 475 383 c 0
578 25 m 0
 579 20 580 15 580 10 c 0
 580 -14 564 -36 540 -43 c 2
 506 -53 l 2
 501 -54 496 -55 491 -55 c 0
 467 -55 445 -39 438 -15 c 0
 437 -10 436 -5 436 -0 c 0
 436 24 452 46 476 53 c 2
 510 63 l 2
 515 64 520 65 525 65 c 0
 549 65 571 49 578 25 c 0
EndSplineSet
Validated: 1
EndChar

StartChar: semicolon
Encoding: 59 59 26
Width: 1000
Flags: H
LayerCount: 2
Fore
SplineSet
497 82 m 0
 501 83 504 83 508 83 c 0
 534 83 557 64 562 38 c 0
 564 26 565 14 565 3 c 0
 565 -45 545 -77 525 -97 c 0
 514 -108 500 -113 486 -113 c 0
 472 -113 458 -108 447 -98 c 0
 436 -87 430 -73 430 -59 c 0
 430 -45 436 -31 446 -20 c 0
 449 -17 455 -12 455 3 c 0
 455 7 455 12 454 17 c 0
 453 21 453 24 453 28 c 0
 453 54 471 77 497 82 c 0
486 385 m 0
 460 385 435 404 431 431 c 0
 431 434 430 437 430 440 c 0
 430 466 450 489 477 494 c 2
 506 499 l 2
 509 499 512 500 515 500 c 0
 541 500 564 480 569 453 c 0
 569 450 570 447 570 444 c 0
 570 418 550 395 523 390 c 2
 494 385 l 2
 491 385 489 385 486 385 c 0
EndSplineSet
Validated: 1
EndChar

StartChar: less
Encoding: 60 60 27
Width: 1000
Flags: H
LayerCount: 2
Fore
SplineSet
674 51 m 0
 696 42 710 22 710 0 c 0
 710 -6 708 -13 706 -19 c 0
 698 -41 677 -55 655 -55 c 0
 649 -55 642 -53 636 -51 c 0
 559 -22 454 68 304 234 c 0
 295 244 290 257 290 270 c 0
 290 283 295 296 303 306 c 0
 385 404 458 476 549 544 c 0
 559 551 571 555 582 555 c 0
 599 555 615 547 626 533 c 0
 633 523 637 511 637 500 c 0
 637 483 629 467 615 456 c 0
 542 401 482 346 418 272 c 1
 563 115 637 65 674 51 c 0
EndSplineSet
Validated: 1
EndChar

StartChar: equal
Encoding: 61 61 28
Width: 1000
Flags: H
LayerCount: 2
Fore
SplineSet
626 321 m 0
 631 322 636 323 641 323 c 0
 665 323 687 307 694 283 c 0
 695 278 696 274 696 269 c 0
 696 245 679 222 655 215 c 0
 638 210 602 204 475 200 c 0
 408 198 346 197 345 197 c 0
 315 197 290 222 290 252 c 0
 290 282 315 307 345 307 c 0
 346 307 406 308 472 310 c 0
 594 314 622 320 626 321 c 0
351 387 m 0
 321 387 296 412 296 442 c 0
 296 472 321 497 351 497 c 0
 417 497 617 505 643 510 c 0
 647 511 651 511 655 511 c 0
 680 511 703 494 709 469 c 0
 710 465 711 460 711 456 c 0
 711 431 694 409 668 403 c 0
 661 401 642 397 514 392 c 0
 451 389 382 387 351 387 c 0
EndSplineSet
Validated: 1
EndChar

StartChar: greater
Encoding: 62 62 29
Width: 1000
Flags: H
LayerCount: 2
Fore
SplineSet
687 355 m 0
 702 344 710 327 710 310 c 0
 710 300 708 290 702 281 c 0
 673 235 640 196 604 154 c 0
 559 101 512 47 473 -26 c 0
 463 -45 444 -55 424 -55 c 0
 415 -55 407 -53 399 -49 c 0
 380 -39 370 -20 370 0 c 0
 370 9 372 18 376 26 c 0
 420 109 473 171 520 226 c 0
 540 250 560 272 578 295 c 1
 548 313 518 330 486 347 c 0
 428 379 368 412 311 457 c 0
 297 468 290 484 290 500 c 0
 290 512 294 524 302 534 c 0
 313 548 329 555 345 555 c 0
 357 555 369 551 379 543 c 0
 429 504 483 475 539 444 c 0
 587 418 637 390 687 355 c 0
EndSplineSet
Validated: 1
EndChar

StartChar: question
Encoding: 63 63 30
Width: 1000
Flags: H
LayerCount: 2
Fore
SplineSet
710 221 m 0
 710 219 710 218 710 216 c 0
 710 188 688 164 660 161 c 0
 628 158 584 155 540 155 c 0
 527 155 514 155 501 156 c 0
 431 160 385 174 359 201 c 0
 343 217 334 238 334 261 c 0
 334 265 335 268 335 272 c 0
 335 273 l 0
 342 327 394 392 473 487 c 0
 494 512 514 536 530 557 c 0
 534 562 536 566 539 570 c 1
 528 574 512 579 487 583 c 0
 449 589 400 593 345 593 c 0
 315 593 290 618 290 648 c 0
 290 678 315 703 345 703 c 0
 345 703 l 0
 394 703 465 700 524 688 c 0
 555 682 581 673 601 663 c 0
 632 648 652 627 661 601 c 0
 664 592 665 582 663 573 c 0
 656 537 622 494 558 417 c 0
 530 383 500 348 478 317 c 0
 463 296 455 282 450 273 c 1
 461 270 481 266 513 265 c 0
 522 265 531 264 540 264 c 0
 580 264 621 268 650 271 c 0
 652 271 653 271 655 271 c 0
 683 271 707 249 710 221 c 0
480 63 m 2
 484 64 489 65 493 65 c 0
 518 65 540 48 546 22 c 0
 547 17 548 13 548 9 c 0
 548 -16 531 -38 506 -44 c 2
 464 -54 l 2
 460 -55 456 -55 452 -55 c 0
 427 -55 404 -38 398 -13 c 0
 397 -9 396 -4 396 0 c 0
 396 25 413 48 439 54 c 2
 480 63 l 2
EndSplineSet
Validated: 1
EndChar

StartChar: at
Encoding: 64 64 31
Width: 1000
Flags: H
LayerCount: 2
Fore
SplineSet
485 161 m 0
 456 165 432 179 413 202 c 1
 419 175 427 150 437 127 c 0
 458 79 482 56 495 55 c 0
 498 55 502 55 506 55 c 0
 521 55 538 57 547 63 c 0
 555 69 561 81 569 98 c 0
 578 117 598 128 619 128 c 0
 627 128 635 127 643 123 c 0
 662 114 673 94 673 73 c 0
 673 65 672 57 668 49 c 0
 657 26 641 -4 611 -26 c 0
 584 -46 551 -55 508 -55 c 0
 502 -55 496 -54 489 -54 c 0
 455 -52 422 -36 394 -7 c 0
 372 16 352 46 336 83 c 0
 307 150 290 233 290 312 c 0
 290 392 307 482 337 554 c 0
 354 595 374 629 397 654 c 0
 435 696 474 704 500 704 c 0
 560 704 611 685 648 649 c 0
 682 616 702 568 708 512 c 0
 708 511 l 0
 709 496 710 482 710 467 c 0
 710 429 706 392 698 358 c 0
 684 298 659 260 625 244 c 0
 619 241 614 240 608 239 c 1
 601 220 590 201 572 186 c 0
 552 169 527 160 500 160 c 0
 495 160 490 160 485 161 c 0
511 307 m 0
 511 314 513 321 516 327 c 0
 515 330 514 332 514 335 c 0
 512 349 506 359 499 363 c 1
 495 354 489 337 489 312 c 0
 489 285 496 273 499 270 c 0
 500 270 501 270 501 270 c 0
 504 273 510 284 511 307 c 0
439 513 m 0
 429 489 421 463 415 435 c 1
 418 440 422 443 426 447 c 0
 445 466 467 476 492 476 c 0
 494 476 l 0
 526 476 557 462 581 438 c 0
 587 432 592 426 597 419 c 1
 599 436 600 454 600 472 c 0
 600 482 600 491 599 501 c 0
 597 522 589 552 570 571 c 0
 554 587 531 594 500 594 c 0
 489 594 463 572 439 513 c 0
EndSplineSet
Validated: 1
EndChar

StartChar: A
Encoding: 65 65 32
Width: 1000
Flags: H
LayerCount: 2
Fore
SplineSet
710 55 m 0
 710 26 688 2 659 -0 c 0
 658 0 656 -1 655 -1 c 0
 627 -1 602 21 600 50 c 0
 595 116 587 180 575 241 c 1
 463 230 l 1
 452 190 441 153 430 120 c 0
 404 41 395 26 385 16 c 0
 374 5 360 -1 346 -1 c 0
 332 -1 318 5 307 15 c 0
 296 26 290 40 290 55 c 0
 290 66 294 78 301 88 c 0
 311 107 342 201 376 334 c 0
 410 466 429 575 429 634 c 0
 429 638 429 642 429 646 c 0
 429 647 429 647 429 648 c 0
 429 672 445 695 468 702 c 0
 473 703 478 704 483 704 c 0
 502 704 521 694 531 677 c 0
 582 588 624 490 654 385 c 0
 661 362 666 338 672 314 c 0
 672 313 672 313 672 312 c 0
 690 233 710 144 710 55 c 0
492 344 m 1
 549 349 l 1
 548 351 549 353 548 355 c 0
 539 388 528 421 516 452 c 1
 509 414 500 377 492 344 c 1
EndSplineSet
Validated: 1
EndChar

StartChar: B
Encoding: 66 66 33
Width: 1000
Flags: H
LayerCount: 2
Fore
SplineSet
670 343 m 0
 705 280 710 217 710 185 c 0
 710 181 710 177 710 174 c 0
 710 173 l 0
 704 71 649 30 617 15 c 0
 595 4 569 -1 543 -1 c 0
 508 -1 472 8 437 26 c 1
 431 24 424 23 417 23 c 0
 388 24 364 49 364 78 c 0
 364 81 364 83 364 86 c 0
 364 123 356 216 342 327 c 0
 326 451 308 551 293 595 c 0
 291 601 290 607 290 613 c 0
 290 622 292 630 296 638 c 0
 303 651 314 660 328 665 c 0
 331 666 390 686 456 697 c 0
 485 702 511 704 533 704 c 0
 543 704 552 704 560 703 c 0
 580 701 598 697 613 690 c 0
 634 680 651 666 661 647 c 0
 671 629 679 606 679 579 c 0
 679 552 671 522 647 490 c 0
 633 471 614 452 589 432 c 1
 622 410 649 380 670 343 c 0
435 456 m 1
 438 460 442 464 447 467 c 0
 504 503 541 531 558 555 c 0
 566 565 569 573 569 580 c 0
 569 584 568 587 566 591 c 1
 562 593 553 595 535 595 c 0
 518 595 493 593 458 586 c 0
 442 583 426 579 412 575 c 1
 420 539 429 497 435 456 c 1
600 180 m 0
 600 182 600 184 600 186 c 0
 600 214 594 254 574 289 c 0
 551 331 515 357 466 366 c 0
 459 367 453 369 447 373 c 1
 449 361 450 351 451 341 c 0
 461 263 469 187 472 133 c 1
 496 118 522 110 543 110 c 0
 553 110 562 112 569 115 c 0
 577 119 583 124 588 132 c 0
 595 144 599 160 600 180 c 0
EndSplineSet
Validated: 1
EndChar

StartChar: C
Encoding: 67 67 34
Width: 1000
Flags: H
LayerCount: 2
Fore
SplineSet
697 120 m 0
 706 110 710 97 710 85 c 0
 710 70 704 54 691 43 c 0
 660 17 622 2 579 -0 c 0
 576 0 574 -1 571 -1 c 0
 536 -1 499 8 464 25 c 0
 415 49 371 87 340 134 c 0
 308 183 290 240 290 299 c 0
 290 302 290 305 290 308 c 0
 292 377 311 448 344 513 c 0
 374 572 415 624 459 658 c 0
 498 689 538 705 575 705 c 0
 584 705 592 704 600 702 c 0
 626 697 643 674 643 648 c 0
 643 644 643 640 642 636 c 0
 637 610 615 593 589 593 c 0
 585 593 581 593 577 594 c 0
 576 594 576 594 575 594 c 0
 567 594 550 590 527 572 c 0
 468 525 400 415 400 300 c 0
 400 263 411 226 432 194 c 0
 452 164 480 139 511 124 c 0
 532 114 552 110 570 110 c 0
 589 110 606 115 619 126 c 0
 629 135 642 139 655 139 c 0
 671 139 686 133 697 120 c 0
EndSplineSet
Validated: 1
EndChar

StartChar: D
Encoding: 68 68 35
Width: 1000
Flags: H
LayerCount: 2
Fore
SplineSet
556 160 m 0
 585 194 600 246 600 312 c 0
 600 338 598 367 593 398 c 0
 576 474 548 528 507 559 c 0
 482 578 450 590 413 593 c 1
 439 466 463 295 477 115 c 1
 510 123 537 137 556 160 c 0
702 416 m 0
 707 379 710 345 710 312 c 0
 710 282 708 255 703 229 c 0
 693 173 671 126 639 89 c 0
 589 31 516 -1 426 -1 c 0
 397 -1 373 22 371 51 c 0
 348 389 305 581 292 632 c 0
 291 636 290 640 290 645 c 0
 290 656 294 668 300 677 c 0
 309 690 323 698 339 700 c 0
 358 702 376 703 393 703 c 0
 464 703 525 685 574 647 c 0
 606 623 633 591 654 552 c 0
 675 515 690 470 701 419 c 0
 701 418 702 417 702 416 c 0
EndSplineSet
Validated: 1
EndChar

StartChar: E
Encoding: 69 69 36
Width: 1000
Flags: H
LayerCount: 2
Fore
SplineSet
703 131 m 0
 708 123 710 114 710 105 c 0
 710 86 700 66 682 56 c 0
 615 18 557 -1 504 -1 c 0
 491 -1 478 1 466 3 c 0
 406 14 355 52 318 117 c 0
 316 121 314 125 313 129 c 0
 307 149 304 171 304 193 c 0
 304 223 310 254 320 284 c 0
 331 316 347 346 369 373 c 1
 348 389 331 408 318 430 c 0
 299 462 290 500 290 541 c 0
 290 555 291 570 293 584 c 0
 294 591 297 597 301 603 c 0
 335 660 393 698 456 704 c 0
 461 704 467 705 472 705 c 0
 501 705 530 698 559 684 c 0
 594 668 627 642 657 607 c 0
 666 596 671 584 671 571 c 0
 671 556 664 541 652 530 c 0
 641 521 628 516 615 516 c 0
 600 516 585 523 574 535 c 0
 540 574 506 594 473 594 c 0
 471 594 468 594 466 594 c 0
 437 591 415 573 401 555 c 1
 400 549 400 543 400 538 c 0
 400 518 404 501 413 486 c 0
 425 465 448 448 478 438 c 0
 497 432 512 415 515 395 c 0
 515 392 516 390 516 387 c 0
 516 370 508 353 494 343 c 0
 460 317 436 283 423 247 c 0
 417 229 414 212 414 195 c 0
 414 185 415 176 417 167 c 1
 444 124 469 114 486 111 c 0
 492 110 498 109 505 109 c 0
 538 109 579 124 628 152 c 0
 636 157 645 159 654 159 c 0
 673 159 693 149 703 131 c 0
EndSplineSet
Validated: 1
EndChar

StartChar: F
Encoding: 70 70 37
Width: 1000
Flags: H
LayerCount: 2
Fore
SplineSet
710 328 m 0
 710 326 710 323 710 321 c 0
 710 294 690 271 662 267 c 2
 478 244 l 1
 479 214 480 184 480 152 c 0
 480 120 479 87 478 53 c 0
 477 23 453 -1 423 -1 c 0
 422 -1 423 -1 422 -1 c 0
 393 0 368 25 368 54 c 0
 368 89 369 124 369 156 c 0
 369 239 366 314 359 378 c 0
 347 482 327 561 298 610 c 0
 293 618 290 628 290 638 c 0
 290 646 292 653 295 660 c 0
 302 676 317 688 334 692 c 0
 374 700 415 705 458 705 c 0
 473 705 487 704 502 703 c 0
 556 700 610 690 658 675 c 0
 682 668 697 645 697 622 c 0
 697 617 696 611 694 606 c 0
 687 582 664 567 641 567 c 0
 636 567 630 568 625 570 c 0
 575 586 518 594 462 594 c 0
 450 594 438 594 426 593 c 1
 445 538 459 472 468 391 c 0
 469 379 471 366 472 354 c 1
 648 376 l 2
 650 376 653 376 655 376 c 0
 682 376 706 356 710 328 c 0
EndSplineSet
Validated: 1
EndChar

StartChar: G
Encoding: 71 71 38
Width: 1000
Flags: H
LayerCount: 2
Fore
SplineSet
692 93 m 0
 701 50 710 10 710 -30 c 0
 710 -60 685 -85 655 -85 c 0
 625 -85 600 -60 600 -30 c 0
 600 -2 593 31 585 70 c 0
 585 72 584 73 584 75 c 1
 543 26 494 -1 447 -1 c 0
 442 -1 436 -1 431 -0 c 0
 403 4 377 17 356 38 c 0
 339 55 326 76 315 103 c 0
 299 144 290 198 290 254 c 0
 290 307 299 364 314 421 c 0
 332 486 358 547 392 601 c 0
 409 629 426 650 444 666 c 0
 468 688 495 701 522 704 c 0
 527 705 532 705 537 705 c 0
 572 705 604 690 636 659 c 0
 647 648 653 634 653 620 c 0
 653 606 647 592 637 581 c 0
 626 570 612 564 598 564 c 0
 584 564 571 570 560 580 c 0
 548 592 539 595 535 595 c 0
 533 595 516 592 485 542 c 0
 457 497 435 446 420 392 c 0
 407 345 400 297 400 254 c 0
 400 212 406 172 417 144 c 0
 421 134 432 111 446 109 c 0
 447 109 l 0
 456 109 477 118 500 147 c 0
 528 181 550 227 560 275 c 0
 566 300 587 318 613 318 c 0
 615 318 617 318 619 318 c 0
 647 315 668 293 669 265 c 0
 670 199 682 143 692 93 c 0
EndSplineSet
Validated: 1
EndChar

StartChar: H
Encoding: 72 72 39
Width: 1000
Flags: H
LayerCount: 2
Fore
SplineSet
707 86 m 0
 709 80 710 74 710 68 c 0
 710 52 703 37 691 26 c 0
 681 17 668 13 655 13 c 0
 640 13 624 19 613 32 c 0
 599 49 597 68 595 106 c 0
 594 130 593 164 592 202 c 0
 591 242 589 291 587 341 c 1
 573 339 559 333 547 326 c 0
 527 314 510 294 494 268 c 0
 463 216 441 141 431 49 c 0
 428 21 404 0 376 0 c 0
 375 0 374 0 373 0 c 0
 345 2 321 26 321 55 c 0
 321 112 324 172 324 231 c 0
 324 375 317 518 291 627 c 0
 290 631 289 636 289 640 c 0
 289 665 306 688 332 694 c 0
 336 695 341 696 345 696 c 0
 370 696 393 679 399 653 c 0
 419 571 428 473 432 370 c 1
 450 390 469 407 490 420 c 0
 518 437 548 447 580 451 c 1
 575 526 567 595 555 634 c 0
 553 639 552 645 552 650 c 0
 552 673 567 695 591 702 c 0
 596 704 602 705 607 705 c 0
 630 705 653 690 660 666 c 0
 690 569 697 359 702 206 c 0
 704 157 705 102 707 86 c 0
EndSplineSet
Validated: 1
EndChar

StartChar: I
Encoding: 73 73 40
Width: 1000
Flags: H
LayerCount: 2
Fore
SplineSet
655 111 m 0
 685 111 710 86 710 56 c 0
 710 26 685 1 655 1 c 0
 572 0 479 -1 351 -15 c 0
 349 -15 347 -15 345 -15 c 0
 317 -15 293 6 290 34 c 0
 290 36 290 37 290 39 c 0
 290 67 311 92 339 95 c 0
 377 99 412 102 444 104 c 1
 446 199 447 284 447 362 c 0
 447 440 446 511 444 576 c 1
 425 575 409 575 393 575 c 0
 379 575 367 575 356 576 c 0
 327 578 305 602 305 631 c 0
 305 662 332 686 361 686 c 0
 362 686 364 686 365 686 c 0
 373 685 383 685 394 685 c 0
 448 685 531 693 619 701 c 2
 638 703 l 2
 640 703 641 703 643 703 c 0
 671 703 695 681 698 653 c 0
 698 651 698 650 698 648 c 0
 698 620 676 596 648 593 c 2
 629 591 l 2
 603 589 578 587 554 585 c 1
 556 519 557 448 557 370 c 0
 557 292 556 206 554 110 c 1
 590 111 624 111 655 111 c 0
EndSplineSet
Validated: 1
EndChar

StartChar: J
Encoding: 74 74 41
Width: 1000
Flags: H
LayerCount: 2
Fore
SplineSet
709 717 m 0
 710 713 710 708 710 704 c 0
 710 679 693 657 667 651 c 0
 653 648 638 644 624 641 c 0
 600 635 576 630 552 625 c 1
 599 504 624 332 634 255 c 0
 637 227 639 201 639 178 c 0
 639 107 623 58 590 29 c 0
 574 15 549 2 514 2 c 0
 503 2 491 3 477 6 c 2
 383 24 l 2
 357 29 338 51 338 77 c 0
 338 81 338 84 339 88 c 0
 344 114 367 133 393 133 c 0
 397 133 400 133 404 132 c 2
 499 114 l 2
 500 114 501 113 502 113 c 0
 511 111 516 112 517 112 c 0
 519 114 525 124 528 147 c 0
 529 156 530 167 530 178 c 0
 530 197 528 218 525 241 c 0
 509 363 479 515 441 604 c 1
 414 600 392 598 373 598 c 0
 359 598 346 599 335 601 c 0
 309 606 290 628 290 654 c 0
 290 658 290 661 291 665 c 0
 296 691 318 710 344 710 c 0
 348 710 351 710 355 709 c 0
 359 708 365 708 374 708 c 0
 389 708 413 710 449 716 c 0
 494 724 547 737 599 749 c 0
 613 752 628 756 643 759 c 0
 647 760 652 760 656 760 c 0
 681 760 703 743 709 717 c 0
EndSplineSet
Validated: 1
EndChar

StartChar: K
Encoding: 75 75 42
Width: 1000
Flags: H
LayerCount: 2
Fore
SplineSet
706 76 m 0
 709 69 710 61 710 54 c 0
 710 32 698 12 677 3 c 0
 670 0 662 -1 655 -1 c 0
 634 -1 613 11 604 32 c 0
 568 115 525 177 469 225 c 1
 478 169 487 118 491 80 c 0
 491 78 491 77 491 75 c 0
 491 47 470 22 442 19 c 0
 440 19 438 19 436 19 c 0
 408 19 385 39 382 67 c 0
 374 141 351 269 331 383 c 0
 305 531 290 617 290 649 c 0
 290 679 315 704 345 704 c 0
 375 704 400 679 400 649 c 0
 400 626 419 514 436 418 c 1
 493 506 547 593 571 658 c 0
 580 680 601 695 623 695 c 0
 629 695 635 693 641 691 c 0
 663 682 678 661 678 639 c 0
 678 633 676 626 674 620 c 0
 644 538 578 434 512 332 c 1
 595 270 658 188 706 76 c 0
EndSplineSet
Validated: 1
EndChar

StartChar: L
Encoding: 76 76 43
Width: 1000
Flags: H
LayerCount: 2
Fore
SplineSet
671 208 m 0
 695 201 710 179 710 156 c 0
 710 151 710 145 708 140 c 0
 700 113 690 92 678 74 c 0
 661 48 639 28 612 16 c 0
 589 5 563 0 534 0 c 0
 524 0 513 1 502 2 c 0
 460 7 413 22 358 46 c 0
 340 54 327 71 325 90 c 0
 306 248 290 410 290 553 c 0
 290 588 291 621 293 653 c 0
 295 682 319 704 348 704 c 0
 349 704 351 704 352 704 c 0
 381 702 403 678 403 650 c 0
 403 619 400 587 400 553 c 0
 400 426 414 279 431 135 c 1
 473 119 509 110 535 110 c 0
 547 110 558 112 566 116 c 0
 582 123 593 140 602 171 c 0
 609 195 631 210 655 210 c 0
 660 210 666 210 671 208 c 0
EndSplineSet
Validated: 1
EndChar

StartChar: M
Encoding: 77 77 44
Width: 1000
Flags: H
LayerCount: 2
Fore
SplineSet
708 78 m 0
 709 73 710 69 710 65 c 0
 710 40 693 18 668 12 c 0
 664 11 659 10 655 10 c 0
 630 10 608 27 602 52 c 0
 593 89 585 164 576 258 c 0
 572 297 568 340 564 381 c 1
 556 350 548 323 538 300 c 0
 529 279 509 266 486 266 c 0
 463 267 444 281 436 302 c 0
 435 305 433 309 432 312 c 1
 425 199 416 95 397 37 c 0
 390 14 368 -1 345 -1 c 0
 339 -1 334 0 328 2 c 0
 305 9 290 31 290 54 c 0
 290 60 291 65 293 71 c 0
 313 135 322 299 329 431 c 0
 334 521 338 599 345 646 c 0
 348 667 364 684 384 690 c 0
 389 692 395 692 401 692 c 0
 416 692 430 687 440 675 c 0
 464 648 480 606 491 557 c 1
 499 596 506 632 514 662 c 0
 519 682 536 698 557 702 c 0
 561 703 564 703 568 703 c 0
 585 703 601 695 612 681 c 0
 632 653 646 601 660 505 c 0
 670 432 679 346 686 269 c 0
 694 186 701 108 708 78 c 0
EndSplineSet
Validated: 1
EndChar

StartChar: N
Encoding: 78 78 45
Width: 1000
Flags: H
LayerCount: 2
Fore
SplineSet
710 416 m 0
 710 415 710 414 710 413 c 0
 709 342 706 260 696 196 c 0
 691 162 684 134 675 112 c 0
 662 81 646 59 624 45 c 0
 612 37 594 30 572 30 c 0
 557 30 539 33 519 42 c 0
 516 43 513 44 510 46 c 0
 474 71 456 122 437 214 c 1
 428 159 415 101 398 39 c 0
 391 15 369 -1 345 -1 c 0
 340 -1 335 0 330 1 c 0
 306 8 290 30 290 54 c 0
 290 59 291 64 292 69 c 0
 344 254 349 401 354 556 c 0
 354 570 355 583 355 597 c 0
 356 624 376 646 403 650 c 0
 406 650 408 651 411 651 c 0
 435 651 456 635 463 612 c 0
 492 520 511 419 527 330 c 0
 536 280 545 232 554 195 c 0
 560 169 566 155 570 146 c 1
 575 156 583 177 589 220 c 0
 597 277 599 349 600 413 c 0
 597 475 591 517 580 546 c 0
 570 571 556 588 536 613 c 2
 536 613 l 2
 528 623 524 635 524 648 c 0
 524 664 530 680 543 691 c 0
 553 699 565 703 577 703 c 0
 593 703 610 696 621 683 c 2
 621 683 l 2
 644 655 666 627 682 586 c 0
 698 544 707 492 710 416 c 0
EndSplineSet
Validated: 1
EndChar

StartChar: O
Encoding: 79 79 46
Width: 1000
Flags: H
LayerCount: 2
Fore
SplineSet
498 105 m 1
 559 141 600 183.957899401 600 374 c 0
 600 423.162994213 587 463 573 492 c 0
 564 510 546 537 518 537 c 0
 480 537 462 507 436 500 c 1
 421 452 400 388.389319696 400 306 c 0
 400 228 413 172 437 140 c 0
 452 120 471 109 498 105 c 1
452 704 m 0
 482 704 510 677 508 646 c 1
 512 646 515 646 519 646 c 0
 541 646 561 642 581 633 c 0
 633 610 697 548 710 380 c 0
 710 378 710 376 710 374 c 0
 708 259 694 182 665 125 c 0
 633 60 584 27 537 1 c 0
 529 -4 519 -6 510 -6 c 0
 509 -6 508 -6 507 -6 c 0
 438 -3 385 24 348 74 c 0
 309 127 290 203 290 308 c 0
 290 310 290 312 290 314 c 0
 313 552 372 650 416 690 c 0
 426 699 439 704 452 704 c 0
EndSplineSet
Validated: 524321
EndChar

StartChar: P
Encoding: 80 80 47
Width: 1000
Flags: H
LayerCount: 2
Fore
SplineSet
699 574 m 0
 706 553 710 529 710 507 c 0
 710 498 709 490 708 481 c 0
 708 479 708 477 707 475 c 0
 684 385 644 331 584 310 c 0
 564 303 544 300 524 300 c 0
 493 300 462 307 434 313 c 0
 426 315 418 316 410 318 c 1
 419 239 434 149 452 68 c 0
 453 64 453 59 453 55 c 0
 453 30 436 8 410 2 c 0
 406 1 402 0 398 0 c 0
 373 0 351 18 345 43 c 0
 315 175 290 360 290 463 c 0
 290 466 290 468 290 470 c 0
 291 477 292 485 293 493 c 0
 297 527 301 570 323 609 c 0
 349 656 395 687 459 701 c 0
 477 705 495 707 513 707 c 0
 531 707 548 705 564 701 c 0
 595 694 622 679 645 658 c 0
 669 636 688 607 699 574 c 0
600 499 m 1
 600 501 600 504 600 506 c 0
 600 529 592 558 571 577 c 0
 556 590 538 597 515 597 c 0
 505 597 495 595 483 593 c 0
 439 583 426 567 419 555 c 0
 408 536 405 510 402 482 c 0
 401 475 401 468 400 460 c 0
 400 451 401 441 401 430 c 0
 402 430 l 0
 405 430 407 430 410 430 c 0
 426 428 442 424 458 421 c 0
 483 415 506 410 525 410 c 0
 533 410 541 411 547 413 c 0
 569 421 587 450 600 499 c 1
EndSplineSet
Validated: 1
EndChar

StartChar: Q
Encoding: 81 81 48
Width: 1000
Flags: H
LayerCount: 2
Fore
SplineSet
611 -124 m 0
 621 -117 632 -113 643 -113 c 0
 657 -113 671 -119 682 -130 c 0
 692 -140 698 -154 698 -168 c 0
 698 -182 692 -197 682 -207 c 0
 656 -233 630 -240 610 -240 c 0
 606 -240 603 -239 600 -239 c 0
 545 -233 513 -181 481 -131 c 2
 480 -128 l 2
 476 -122 473 -119 471 -117 c 0
 465 -120 441 -136 408 -204 c 0
 399 -223 379 -234 358 -234 c 0
 350 -234 342 -233 334 -229 c 0
 315 -220 304 -200 304 -180 c 0
 304 -172 305 -164 309 -156 c 0
 331 -110 354 -77 378 -52 c 0
 394 -36 409 -25 426 -17 c 1
 421 -15 416 -13 412 -11 c 0
 383 1 360 20 341 46 c 0
 321 73 308 107 300 149 c 0
 294 183 290 220 290 265 c 0
 290 276 291 288 291 300 c 0
 291 300 l 0
 294 377 305 448 323 512 c 0
 342 582 368 639 402 683 c 0
 413 697 429 705 446 705 c 0
 458 705 470 701 480 693 c 0
 490 685 496 674 499 663 c 1
 520 674 542 682 565 682 c 0
 574 682 583 681 592 678 c 0
 626 668 652 643 672 601 c 0
 688 567 701 520 709 459 c 0
 709 457 709 455 709 453 c 0
 709 443 709 432 709 422 c 0
 709 317 695 224 668 149 c 0
 636 62 587 5 524 -20 c 1
 540 -29 558 -46 573 -70 c 2
 575 -72 l 2
 585 -88 594 -103 603 -115 c 0
 606 -119 609 -122 611 -124 c 0
401 295 m 0
 400 283 400 271 400 258 c 0
 400 203 407 143 430 111 c 0
 442 94 458 85 485 82 c 1
 498 88 511 97 523 111 c 0
 539 130 553 155 565 187 c 0
 588 249 600 328 600 418 c 0
 600 427 600 437 600 447 c 1
 587 541 567 567 562 572 c 1
 555 570 530 559 480 498 c 0
 469 485 454 477 438 477 c 0
 435 477 431 477 428 478 c 1
 413 424 404 361 401 295 c 0
EndSplineSet
Validated: 1
EndChar

StartChar: R
Encoding: 82 82 49
Width: 1000
Flags: H
LayerCount: 2
Fore
SplineSet
703 82 m 0
 708 73 710 64 710 55 c 0
 710 36 700 16 683 6 c 0
 674 1 664 -1 655 -1 c 0
 636 -1 617 8 607 26 c 0
 604 31 601 38 598 43 c 0
 560 108 519 181 468 202 c 1
 472 155 479 106 479 56 c 0
 479 28 457 4 428 2 c 0
 427 2 425 2 424 2 c 0
 395 2 371 24 369 53 c 0
 354 281 329 466 291 636 c 0
 290 640 290 644 290 648 c 0
 290 661 295 673 303 683 c 0
 313 695 328 703 344 703 c 0
 345 703 346 703 347 703 c 0
 362 702 377 702 391 702 c 0
 447 701 500 699 547 682 c 0
 575 672 600 656 619 636 c 0
 639 614 655 586 665 553 c 0
 672 531 676 509 676 486 c 0
 676 470 674 453 670 437 c 0
 663 404 648 370 626 339 c 0
 609 315 588 292 565 271 c 1
 579 260 593 247 606 231 c 0
 640 191 668 142 693 98 c 0
 696 93 700 87 703 82 c 0
455 326 m 1
 487 346 515 373 535 402 c 0
 555 431 565 460 565 487 c 0
 565 498 563 509 560 520 c 0
 548 560 529 572 510 579 c 0
 485 588 451 590 413 591 c 1
 430 508 444 420 455 326 c 1
EndSplineSet
Validated: 1
EndChar

StartChar: S
Encoding: 83 83 50
Width: 1000
Flags: H
LayerCount: 2
Fore
SplineSet
637 345 m 0
 686 301 710 243 710 174 c 0
 710 141 702 112 687 86 c 0
 673 63 653 44 627 29 c 0
 582 4 528 -4 483 -4 c 0
 471 -4 460 -3 450 -2 c 0
 405 1 347 11 317 29 c 0
 300 40 290 58 290 77 c 0
 290 87 293 96 298 105 c 0
 308 122 326 132 345 132 c 0
 355 132 364 129 373 124 c 0
 380 121 414 110 462 107 c 0
 469 107 477 106 484 106 c 0
 522 106 554 113 574 125 c 0
 592 136 600 150 600 174 c 0
 600 212 589 239 563 263 c 0
 536 287 497 306 459 323 c 0
 421 340 383 357 352 383 c 0
 311 417 290 460 290 510 c 0
 290 592 329 638 362 662 c 0
 399 689 450 705 509 707 c 0
 512 707 516 707 519 707 c 0
 560 707 605 701 641 690 c 0
 665 683 680 660 680 637 c 0
 680 632 679 626 677 621 c 0
 670 597 648 582 625 582 c 0
 620 582 614 583 609 585 c 0
 584 593 552 597 523 597 c 0
 520 597 516 597 513 597 c 0
 477 596 446 587 427 573 c 0
 415 564 400 549 400 510 c 0
 400 474 431 457 505 423 c 0
 548 403 598 381 637 345 c 0
EndSplineSet
Validated: 1
EndChar

StartChar: T
Encoding: 84 84 51
Width: 1000
Flags: H
LayerCount: 2
Fore
SplineSet
709 680 m 0
 710 676 710 673 710 669 c 0
 710 643 691 621 665 616 c 0
 642 612 619 607 597 604 c 1
 607 490 611 383 611 281 c 0
 611 201 608 125 603 51 c 0
 601 22 578 0 549 0 c 0
 548 0 545 0 544 0 c 0
 515 2 494 27 494 55 c 0
 494 123 501 192 501 265 c 0
 501 367 496 476 487 593 c 1
 466 592 446 591 426 591 c 0
 396 591 367 592 339 595 c 0
 311 598 289 622 289 650 c 0
 289 652 289 653 289 655 c 0
 292 683 316 705 344 705 c 0
 346 705 347 705 349 705 c 0
 374 703 400 702 427 702 c 0
 494 702 566 709 645 724 c 0
 649 725 652 725 656 725 c 0
 682 725 704 706 709 680 c 0
EndSplineSet
Validated: 1
EndChar

StartChar: U
Encoding: 85 85 52
Width: 1000
Flags: H
LayerCount: 2
Fore
SplineSet
710 347 m 0
 710 345 710 344 710 342 c 0
 710 242 683 167 659 122 c 0
 620 47 566 -1 514 -6 c 0
 511 -6 507 -6 503 -6 c 0
 482 -6 454 0 426 26 c 0
 383 64 349 138 326 244 c 0
 302 353 290 488 290 648 c 0
 290 678 315 703 345 703 c 0
 375 703 400 678 400 648 c 0
 400 481 414 338 441 235 c 0
 452 192 467 156 481 132 c 0
 492 113 501 106 504 104 c 0
 515 109 545 135 570 191 c 0
 584 223 601 273 601 339 c 0
 601 346 600 352 600 359 c 0
 596 435 573 512 530 589 c 0
 525 598 523 607 523 616 c 0
 523 635 533 654 551 664 c 0
 560 669 569 671 578 671 c 0
 597 671 616 661 626 643 c 0
 680 545 709 445 710 347 c 0
EndSplineSet
Validated: 1
EndChar

StartChar: V
Encoding: 86 86 53
Width: 1000
Flags: H
LayerCount: 2
Fore
SplineSet
655 704 m 0
 685 704 710 679 710 649 c 0
 710 582 678 413 659 319 c 0
 640 223 607 69 593 35 c 0
 585 15 567 1 546 0 c 0
 545 0 543 0 542 0 c 0
 522 0 504 11 494 28 c 0
 411 172 369 353 337 486 c 0
 329 522 321 552 314 576 c 0
 306 606 301 615 300 617 c 0
 293 626 290 638 290 649 c 0
 290 666 297 683 312 694 c 0
 321 701 333 704 344 704 c 0
 361 704 378 697 389 682 c 0
 409 655 421 607 444 511 c 0
 464 426 489 321 526 221 c 1
 534 257 543 298 552 342 c 0
 582 491 600 608 600 649 c 0
 600 679 625 704 655 704 c 0
EndSplineSet
Validated: 1
EndChar

StartChar: W
Encoding: 87 87 54
Width: 1000
Flags: H
LayerCount: 2
Fore
SplineSet
703 494 m 0
 708 452 710 406 710 360 c 0
 710 309 707 259 702 214 c 0
 696 166 689 128 678 98 c 0
 660 50 634 22 599 16 c 0
 595 15 592 15 588 15 c 0
 572 15 555 20 541 30 c 0
 531 37 520 48 509 68 c 1
 498 43 485 25 470 14 c 0
 457 4 442 -1 426 -1 c 0
 420 -1 415 0 409 1 c 0
 391 5 367 15 346 44 c 0
 334 61 325 82 317 108 c 0
 305 149 297 203 293 269 c 0
 291 299 291 329 291 359 c 0
 291 452 298 543 306 598 c 0
 311 625 333 645 359 645 c 0
 362 645 365 644 368 644 c 0
 395 639 415 616 415 590 c 0
 415 587 414 584 414 581 c 0
 406 531 400 450 400 365 c 0
 400 344 400 323 401 302 c 0
 404 225 412 177 420 148 c 1
 424 163 428 183 432 208 c 0
 441 259 445 308 445 316 c 0
 445 345 467 368 496 370 c 0
 497 370 499 370 500 370 c 0
 527 370 551 351 555 324 c 0
 566 253 576 206 585 175 c 1
 586 182 588 190 589 199 c 0
 596 244 600 302 600 361 c 0
 600 420 595 476 588 522 c 0
 579 576 569 596 566 602 c 0
 549 612 540 630 540 649 c 0
 540 656 541 664 544 671 c 0
 553 692 573 704 594 704 c 0
 601 704 609 703 616 700 c 0
 654 684 672 642 681 612 c 0
 691 581 698 542 703 494 c 0
EndSplineSet
Validated: 1
EndChar

StartChar: X
Encoding: 88 88 55
Width: 1000
Flags: H
LayerCount: 2
Fore
SplineSet
699 126 m 0
 706 116 710 104 710 93 c 0
 710 76 702 60 688 49 c 0
 678 42 666 38 655 38 c 0
 638 38 622 45 611 60 c 0
 572 112 534 167 499 223 c 1
 471 164 446 104 429 41 c 0
 422 17 400 0 376 0 c 0
 371 0 367 1 362 2 c 0
 338 9 321 32 321 56 c 0
 321 61 322 65 323 70 c 0
 349 164 389 251 431 335 c 1
 374 433 327 524 295 593 c 0
 291 601 290 608 290 616 c 0
 290 637 302 657 322 666 c 0
 330 670 338 671 346 671 c 0
 366 671 386 660 395 640 c 0
 419 588 452 522 492 451 c 1
 532 526 567 597 588 664 c 0
 595 688 617 703 641 703 c 0
 646 703 652 703 657 701 c 0
 681 694 696 671 696 648 c 0
 696 643 695 637 693 632 c 0
 667 548 622 463 575 373 c 0
 569 362 563 350 557 339 c 1
 601 267 649 194 699 126 c 0
EndSplineSet
Validated: 1
EndChar

StartChar: Y
Encoding: 89 89 56
Width: 1000
Flags: H
LayerCount: 2
Fore
SplineSet
693 661 m 0
 705 625 710 593 710 565 c 0
 710 533 703 505 688 481 c 0
 663 441 622 419 583 407 c 1
 586 374 587 334 587 293 c 0
 587 178 579 54 579 52 c 0
 577 23 554 0 525 0 c 0
 524 0 522 0 521 0 c 0
 492 2 470 26 470 55 c 0
 470 117 477 206 477 286 c 0
 477 327 476 366 474 395 c 1
 458 396 444 399 431 402 c 0
 399 410 371 426 350 447 c 0
 328 469 311 499 301 534 c 0
 293 562 290 595 290 634 c 0
 290 639 290 644 290 650 c 0
 291 679 316 703 345 703 c 0
 346 703 346 703 347 703 c 0
 376 702 400 677 400 648 c 0
 400 642 400 636 400 631 c 0
 400 578 410 542 427 525 c 0
 442 510 468 504 508 504 c 0
 511 504 514 504 517 504 c 1
 559 512 585 523 594 538 c 0
 598 545 600 554 600 565 c 0
 600 581 596 602 588 627 c 0
 586 632 585 638 585 643 c 0
 585 666 600 689 624 696 c 0
 630 698 635 699 641 699 c 0
 664 699 686 684 693 661 c 0
EndSplineSet
Validated: 1
EndChar

StartChar: Z
Encoding: 90 90 57
Width: 1000
Flags: H
LayerCount: 2
Fore
SplineSet
666 446 m 0
 692 441 710 419 710 393 c 0
 710 389 710 386 709 382 c 0
 704 356 681 337 655 337 c 0
 651 337 648 337 644 338 c 0
 629 341 612 342 594 342 c 0
 560 342 521 338 485 334 c 1
 461 293 442 257 428 227 c 0
 414 196 400 159 400 133 c 0
 400 129 400 125 401 121 c 1
 410 116 432 109 470 107 c 0
 477 107 484 106 491 106 c 0
 531 106 572 113 610 126 c 0
 616 128 621 129 627 129 c 0
 650 129 673 114 680 91 c 0
 682 85 683 80 683 74 c 0
 683 51 668 28 645 21 c 0
 595 5 541 -4 489 -4 c 0
 479 -4 469 -4 459 -3 c 0
 375 2 335 29 316 50 c 0
 313 53 310 56 308 60 c 0
 295 82 290 105 290 132 c 0
 290 139 290 147 291 155 c 0
 295 188 307 227 328 273 c 0
 336 291 345 309 356 330 c 1
 346 332 338 336 330 340 c 0
 312 350 301 369 301 388 c 0
 301 397 303 405 308 414 c 0
 318 432 338 443 358 443 c 0
 366 443 373 441 380 438 c 0
 383 438 390 436 408 437 c 0
 411 437 415 438 419 438 c 0
 448 484 481 537 521 596 c 1
 519 596 518 596 516 596 c 0
 421 598 361 601 326 624 c 0
 310 635 301 653 301 671 c 0
 301 681 304 691 310 700 c 0
 320 716 338 725 356 725 c 0
 366 725 376 723 385 717 c 0
 387 716 398 712 430 709 c 0
 456 707 487 707 518 706 c 0
 556 705 596 704 628 701 c 0
 647 699 664 687 672 669 c 0
 675 662 677 654 677 646 c 0
 677 635 674 624 667 615 c 0
 625 554 588 499 557 451 c 1
 570 452 583 452 596 452 c 0
 620 452 644 451 666 446 c 0
EndSplineSet
Validated: 1
EndChar

StartChar: bracketleft
Encoding: 91 91 58
Width: 1000
Flags: H
LayerCount: 2
Fore
SplineSet
618 -115 m 0
 647 -116 671 -142 671 -171 c 0
 671 -202 645 -225 615 -225 c 0
 614 -225 614 -225 613 -225 c 0
 604 -225 595 -224 587 -224 c 0
 537 -224 490 -231 440 -239 c 0
 437 -239 435 -240 432 -240 c 0
 419 -240 406 -235 396 -227 c 0
 384 -217 377 -201 377 -185 c 0
 374 211 357 506 330 693 c 0
 330 695 330 698 330 701 c 0
 330 714 334 726 342 736 c 0
 352 748 366 755 381 756 c 0
 407 757 430 758 452 758 c 0
 474 758 495 759 518 760 c 0
 519 760 520 760 521 760 c 0
 550 760 576 736 576 705 c 0
 576 677 553 652 524 650 c 0
 499 649 476 648 454 648 c 0
 452 648 449 648 447 648 c 1
 469 467 482 209 486 -122 c 1
 521 -118 556 -114 593 -114 c 0
 601 -114 610 -115 618 -115 c 0
EndSplineSet
Validated: 1
EndChar

StartChar: backslash
Encoding: 92 92 59
Width: 1000
Flags: H
LayerCount: 2
Fore
SplineSet
692 41 m 0
 704 30 710 16 710 1 c 0
 710 -12 705 -26 696 -37 c 0
 685 -49 670 -55 655 -55 c 0
 642 -55 628 -50 618 -41 c 0
 545 24 494 170 436 339 c 0
 393 462 350 589 298 677 c 0
 293 686 290 695 290 705 c 0
 290 724 300 742 317 752 c 0
 326 757 335 760 345 760 c 0
 364 760 382 750 392 733 c 0
 450 635 496 503 540 375 c 0
 567 297 593 224 619 163 c 0
 646 101 670 60 692 41 c 0
EndSplineSet
Validated: 1
EndChar

StartChar: bracketright
Encoding: 93 93 60
Width: 1000
Flags: H
LayerCount: 2
Fore
SplineSet
661 -176 m 2
 663 -204 643 -229 615 -234 c 0
 591 -238 568 -240 545 -240 c 0
 485 -240 432 -228 402 -219 c 0
 378 -212 363 -190 363 -166 c 0
 363 -161 363 -155 365 -150 c 0
 372 -126 394 -111 417 -111 c 0
 422 -111 428 -111 433 -113 c 0
 471 -124 511 -130 547 -130 c 1
 532 67 518 247 518 409 c 0
 518 491 522 568 530 639 c 1
 506 637 482 635 458 635 c 0
 434 635 410 637 388 639 c 0
 360 643 340 666 340 693 c 0
 340 695 340 698 340 700 c 0
 344 728 367 748 394 748 c 0
 396 748 399 748 401 748 c 0
 418 746 436 745 455 745 c 0
 498 745 543 750 583 759 c 0
 587 760 591 760 595 760 c 0
 609 760 623 755 633 745 c 0
 644 734 650 719 650 704 c 0
 650 701 650 698 649 695 c 0
 634 610 628 515 628 410 c 0
 628 243 643 53 659 -155 c 2
 661 -176 l 2
EndSplineSet
Validated: 33
EndChar

StartChar: asciicircum
Encoding: 94 94 61
Width: 1000
Flags: H
LayerCount: 2
Fore
SplineSet
687 545 m 1
 701 535 710 519 710 500 c 0
 710 470 685 445 655 445 c 0
 642 445 622 450 605 470 c 0
 600 476 594 484 589 494 c 0
 581 508 574 526 566 545 c 0
 556 569 544 595 532 617 c 0
 526 627 521 635 517 640 c 1
 505 627 486 606 459 571 c 0
 423 524 401 489 397 481 c 0
 389 459 367 445 345 445 c 0
 339 445 333 446 327 448 c 0
 304 456 290 477 290 500 c 0
 290 506 291 512 293 518 c 0
 306 554 372 638 379 648 c 0
 394 667 417 695 438 716 c 0
 464 742 486 760 514 760 c 0
 530 760 556 755 581 733 c 0
 594 722 606 707 618 688 c 0
 637 657 653 621 667 589 c 0
 673 574 682 555 687 545 c 1
EndSplineSet
Validated: 1
EndChar

StartChar: underscore
Encoding: 95 95 62
Width: 1000
Flags: H
LayerCount: 2
Fore
SplineSet
340 -41 m 2
 312 -39 290 -16 290 13 c 0
 290 43 315 68 345 68 c 0
 354 68 363 68 373 68 c 0
 446 68 522 67 580 61 c 0
 606 58 628 55 647 50 c 0
 656 48 664 45 674 40 c 0
 681 36 692 31 701 17 c 0
 707 8 710 -2 710 -13 c 0
 710 -43 685 -68 655 -68 c 0
 653 -68 652 -68 650 -68 c 2
 340 -41 l 2
EndSplineSet
Validated: 1
EndChar

StartChar: grave
Encoding: 96 96 63
Width: 1000
Flags: H
LayerCount: 2
Fore
SplineSet
588 602 m 0
 605 592 615 573 615 554 c 0
 615 547 614 539 611 532 c 0
 602 511 581 499 560 499 c 0
 553 499 545 501 538 504 c 0
 520 512 499 530 447 601 c 0
 420 638 396 673 395 674 c 0
 389 683 386 694 386 705 c 0
 386 723 394 740 410 751 c 0
 419 757 430 760 440 760 c 0
 458 760 475 752 486 736 c 1
 486 736 l 1
 486 736 507 706 531 673 c 0
 569 621 584 606 588 602 c 0
EndSplineSet
Validated: 1
EndChar

StartChar: a
Encoding: 97 97 64
Width: 1000
Flags: H
LayerCount: 2
Fore
SplineSet
702 65 m 0
 707 56 710 47 710 37 c 0
 710 18 700 0 683 -10 c 0
 674 -15 664 -18 655 -18 c 0
 636 -18 618 -7 608 10 c 0
 591 39 577 77 564 121 c 1
 553 93 539 65 520 43 c 0
 488 5 454 -4 429 -4 c 0
 426 -4 424 -4 421 -4 c 0
 383 -1 351 17 328 46 c 0
 298 85 289 137 289 183 c 0
 289 216 294 245 297 263 c 0
 309 328 350 387 373 415 c 0
 389 435 406 453 423 467 c 0
 444 485 463 495 481 499 c 0
 485 500 488 500 492 500 c 0
 518 500 541 482 546 456 c 0
 547 452 548 447 548 443 c 1
 567 441 584 429 592 411 c 0
 612 366 628 305 645 240 c 0
 662 174 681 100 702 65 c 0
477 213 m 0
 485 249 492 295 492 333 c 0
 492 349 491 363 488 375 c 0
 488 376 488 376 488 377 c 1
 478 368 466 355 453 339 c 0
 428 306 411 272 406 244 c 0
 402 223 400 201 400 182 c 0
 400 175 400 169 401 163 c 0
 403 140 408 122 415 113 c 0
 418 109 421 107 427 106 c 0
 429 107 438 114 449 134 c 0
 460 154 469 181 477 213 c 0
EndSplineSet
Validated: 1
EndChar

StartChar: b
Encoding: 98 98 65
Width: 1000
Flags: H
LayerCount: 2
Fore
SplineSet
701 295 m 0
 707 264 710 235 710 209 c 0
 710 182 707 156 700 134 c 0
 684 79 648 38 594 9 c 0
 590 7 585 5 580 4 c 0
 562 0 544 -2 526 -2 c 0
 486 -2 444 7 401 27 c 0
 400 27 399 28 398 29 c 0
 383 36 367 44 351 54 c 0
 334 64 325 82 325 100 c 0
 325 110 328 121 334 130 c 0
 341 141 350 149 361 153 c 1
 358 191 355 229 351 267 c 1
 334 277 322 295 322 315 c 0
 322 319 323 324 324 328 c 0
 328 345 333 362 339 377 c 1
 327 479 312 583 291 695 c 0
 290 699 290 702 290 706 c 0
 290 732 309 754 335 759 c 0
 339 760 342 760 346 760 c 0
 372 760 394 741 399 715 c 0
 413 639 424 567 434 496 c 1
 449 502 463 504 475 504 c 0
 476 504 l 0
 477 504 476 504 477 504 c 0
 528 502 580 480 622 441 c 0
 663 402 691 351 701 295 c 0
594 166 m 0
 598 179 600 194 600 211 c 0
 600 229 598 251 593 275 c 0
 587 308 571 338 547 361 c 0
 526 381 501 392 477 394 c 0
 475 393 467 387 458 372 c 0
 456 368 453 364 451 360 c 0
 460 277 468 197 475 116 c 1
 492 111 509 108 525 108 c 0
 533 108 541 109 549 110 c 1
 573 124 587 142 594 166 c 0
EndSplineSet
Validated: 1
EndChar

StartChar: c
Encoding: 99 99 66
Width: 1000
Flags: H
LayerCount: 2
Fore
SplineSet
657 151 m 0
 686 150 710 125 710 96 c 0
 710 65 685 41 655 41 c 0
 654 41 654 41 653 41 c 0
 637 41 626 35 604 24 c 0
 578 10 544 -7 494 -7 c 0
 484 -7 473 -6 462 -4 c 0
 404 4 357 34 327 84 c 0
 303 124 290 176 290 234 c 0
 290 273 299 312 316 349 c 0
 334 389 360 424 392 450 c 0
 420 473 452 489 487 497 c 0
 505 501 524 504 544 504 c 0
 564 504 585 501 605 497 c 0
 631 492 649 469 649 443 c 0
 649 439 649 436 648 432 c 0
 643 406 621 389 595 389 c 0
 591 389 587 389 583 390 c 0
 570 393 557 394 545 394 c 0
 513 394 485 385 461 365 c 0
 442 350 427 328 416 304 c 0
 406 281 400 257 400 234 c 0
 400 197 407 163 421 141 c 0
 434 119 452 108 477 104 c 0
 483 103 489 103 494 103 c 0
 517 103 533 111 554 122 c 0
 579 135 610 151 653 151 c 0
 654 151 656 151 657 151 c 0
EndSplineSet
Validated: 1
EndChar

StartChar: d
Encoding: 100 100 67
Width: 1000
Flags: H
LayerCount: 2
Fore
SplineSet
646 566 m 0
 676 472 710 364 710 293 c 0
 710 248 705 207 694 170 c 0
 683 134 668 103 647 77 c 0
 608 27 552 -2 489 -4 c 0
 488 -4 488 -4 487 -4 c 0
 430 -4 379 20 344 62 c 0
 309 104 290 164 290 235 c 0
 290 298 306 357 337 403 c 0
 366 446 407 478 453 494 c 0
 455 495 456 495 458 495 c 0
 475 499 493 501 510 501 c 0
 525 501 540 499 553 496 c 1
 549 508 545 520 541 532 c 0
 514 616 497 668 497 705 c 0
 497 734 521 759 550 760 c 0
 551 760 551 760 552 760 c 0
 581 760 606 736 607 707 c 0
 608 686 629 619 646 566 c 0
561 145 m 0
 587 177 600 229 600 293 c 0
 600 294 l 0
 600 308 598 326 594 346 c 1
 580 349 568 358 560 371 c 0
 555 379 535 391 507 391 c 0
 500 391 494 391 486 389 c 0
 464 381 444 364 429 342 c 0
 410 314 400 276 400 235 c 0
 400 190 409 155 428 133 c 0
 442 116 462 106 486 106 c 0
 507 107 537 115 561 145 c 0
EndSplineSet
Validated: 1
EndChar

StartChar: e
Encoding: 101 101 68
Width: 1000
Flags: H
LayerCount: 2
Fore
SplineSet
700 128 m 0
 707 118 710 107 710 96 c 0
 710 79 702 62 687 51 c 0
 637 15 576 -4 517 -4 c 0
 478 -4 440 4 405 21 c 0
 335 55 293 119 290 197 c 0
 290 203 290 208 290 214 c 0
 290 247 294 280 303 310 c 0
 313 344 328 375 347 402 c 0
 385 456 440 491 497 500 c 0
 508 502 519 503 530 503 c 0
 573 503 613 488 645 462 c 0
 677 436 697 403 697 371 c 0
 697 354 690 339 677 325 c 0
 659 306 623 283 580 264 c 0
 545 249 491 230 437 228 c 0
 424 228 411 232 401 240 c 1
 400 232 400 223 400 214 c 0
 400 210 400 206 400 202 c 0
 401 164 420 136 453 120 c 0
 472 111 495 106 519 106 c 0
 525 106 530 106 536 107 c 0
 568 110 598 122 623 140 c 0
 633 147 645 151 656 151 c 0
 673 151 689 143 700 128 c 0
514 391 m 0
 486 387 458 367 437 338 c 1
 465 340 500 349 535 364 c 0
 549 370 561 377 570 382 c 1
 569 382 l 0
 558 389 545 392 530 392 c 0
 525 392 520 392 514 391 c 0
EndSplineSet
Validated: 1
EndChar

StartChar: f
Encoding: 102 102 69
Width: 1000
Flags: H
LayerCount: 2
Fore
SplineSet
655 441 m 0
 685 441 710 416 710 386 c 0
 710 356 685 331 655 331 c 0
 621 331 581 327 540 322 c 1
 575 206 616 113 634 88 c 0
 641 78 645 66 645 55 c 0
 645 38 637 22 622 11 c 0
 612 4 600 0 589 0 c 0
 572 0 556 8 545 23 c 0
 514 66 467 181 431 303 c 0
 431 303 l 0
 406 297 383 292 362 285 c 0
 357 283 350 283 345 283 c 0
 322 283 300 298 293 321 c 0
 291 327 290 332 290 338 c 0
 290 361 305 383 328 390 c 0
 351 397 377 404 404 410 c 1
 398 437 393 462 389 486 c 0
 383 523 381 556 381 585 c 0
 381 608 382 629 386 647 c 0
 394 689 413 719 441 736 c 0
 471 754 498 760 520 760 c 0
 534 760 546 758 556 755 c 0
 581 747 616 727 639 676 c 0
 643 668 644 661 644 653 c 0
 644 632 632 612 612 603 c 0
 604 599 597 598 589 598 c 0
 568 598 548 610 539 630 c 0
 533 642 528 649 524 650 c 0
 520 651 512 649 500 642 c 0
 498 639 491 625 491 584 c 0
 491 576 491 567 492 557 c 0
 494 521 501 478 512 430 c 1
 562 437 612 441 655 441 c 0
EndSplineSet
Validated: 1
EndChar

StartChar: g
Encoding: 103 103 70
Width: 1000
Flags: H
LayerCount: 2
Fore
SplineSet
693 286 m 0
 704 226 709 154 709 74 c 0
 709 49 709 23 708 -3 c 0
 705 -83 679 -144 631 -184 c 0
 592 -217 547 -230 503 -239 c 0
 499 -240 495 -240 491 -240 c 0
 466 -240 443 -222 438 -196 c 0
 437 -192 437 -188 437 -184 c 0
 437 -158 454 -136 480 -131 c 0
 508 -125 539 -118 561 -100 c 0
 596 -71 598 -16 599 2 c 0
 600 18 600 34 600 50 c 0
 600 71 600 92 599 112 c 1
 563 66 515 38 463 33 c 0
 458 32 453 32 448 32 c 0
 413 32 380 44 355 68 c 0
 331 90 313 120 302 159 c 0
 292 195 290 228 290 244 c 0
 290 290 308 332 323 360 c 0
 343 396 370 430 399 455 c 0
 435 485 471 500 507 500 c 0
 514 500 521 499 528 498 c 0
 551 494 568 476 572 454 c 1
 576 455 581 456 585 456 c 0
 592 456 600 454 607 451 c 0
 648 433 676 380 693 286 c 0
553 290 m 0
 553 294 553 298 553 302 c 0
 553 329 547 354 536 375 c 0
 533 380 532 385 531 390 c 1
 524 388 517 389 509 390 c 0
 509 390 508 390 507 390 c 0
 501 390 488 385 470 370 c 0
 432 338 400 282 400 244 c 0
 400 211 410 166 429 149 c 0
 434 145 440 142 453 143 c 0
 482 146 509 168 529 204 c 0
 543 230 552 260 553 290 c 0
EndSplineSet
Validated: 1
EndChar

StartChar: h
Encoding: 104 104 71
Width: 1000
Flags: H
LayerCount: 2
Fore
SplineSet
690 267 m 0
 697 228 710 147 710 35 c 0
 710 5 685 -20 655 -20 c 0
 625 -20 600 5 600 35 c 0
 600 79 597 166 582 247 c 0
 564 343 537 374 527 383 c 0
 522 388 517 390 513 390 c 0
 508 382 499 360 491 304 c 0
 483 252 479 188 476 131 c 0
 474 102 472 76 470 51 c 0
 468 22 444 0 416 -0 c 0
 415 0 413 0 412 0 c 0
 383 2 360 26 360 55 c 0
 360 59 360 62 360 66 c 0
 360 140 339 292 321 427 c 0
 304 549 290 655 290 705 c 0
 290 735 315 760 345 760 c 0
 375 760 400 735 400 705 c 0
 400 665 414 562 428 459 c 1
 442 477 462 494 490 498 c 0
 497 499 504 500 511 500 c 0
 543 500 573 488 599 466 c 0
 642 429 672 364 690 267 c 0
EndSplineSet
Validated: 1
EndChar

StartChar: i
Encoding: 105 105 72
Width: 1000
Flags: H
LayerCount: 2
Fore
SplineSet
688 191 m 0
 702 180 710 164 710 147 c 0
 710 136 706 124 699 114 c 0
 698 113 674 78 641 49 c 0
 619 29 598 16 578 8 c 0
 562 2 548 -1 535 -1 c 0
 511 -1 492 8 482 15 c 0
 450 37 432 78 424 143 c 0
 421 169 419 198 419 232 c 0
 419 252 420 274 421 297 c 0
 423 334 427 370 430 401 c 1
 401 395 374 393 347 392 c 0
 346 392 346 392 345 392 c 0
 315 392 290 416 290 447 c 0
 290 476 314 501 343 502 c 0
 396 504 430 510 467 534 c 0
 476 540 487 543 497 543 c 0
 507 543 518 540 527 534 c 0
 543 524 553 507 553 488 c 0
 553 485 553 482 552 479 c 0
 552 478 538 394 532 302 c 0
 530 272 529 244 529 219 c 0
 529 201 530 185 531 170 c 0
 534 138 539 122 542 113 c 1
 550 117 562 126 578 142 c 0
 597 161 611 179 611 179 c 0
 622 194 639 201 656 201 c 0
 667 201 679 198 688 191 c 0
458 622 m 2
 414 667 l 2
 404 678 399 691 399 705 c 0
 399 720 405 734 416 745 c 0
 427 755 440 760 454 760 c 0
 469 760 483 754 494 743 c 2
 537 698 l 2
 547 687 552 674 552 660 c 0
 552 645 546 631 535 620 c 0
 524 610 511 605 497 605 c 0
 482 605 469 611 458 622 c 2
EndSplineSet
Validated: 1
EndChar

StartChar: j
Encoding: 106 106 73
Width: 1000
Flags: H
LayerCount: 2
Fore
SplineSet
654 -177 m 0
 654 -204 634 -226 608 -231 c 0
 574 -237 544 -240 517 -240 c 0
 503 -240 490 -240 478 -238 c 0
 400 -228 366 -187 351 -155 c 0
 347 -147 346 -140 346 -132 c 0
 346 -111 358 -91 378 -82 c 0
 386 -78 393 -77 401 -77 c 0
 422 -77 442 -89 451 -109 c 0
 453 -112 455 -116 462 -120 c 0
 469 -124 479 -127 492 -129 c 0
 498 -130 504 -130 511 -130 c 0
 520 -130 530 -130 541 -129 c 1
 530 2 498 138 470 260 c 0
 449 353 431 434 425 495 c 0
 425 497 425 498 425 500 c 0
 425 528 447 552 475 555 c 0
 477 555 478 555 480 555 c 0
 508 555 532 533 535 505 c 0
 540 451 557 374 577 285 c 0
 608 152 654 -22 654 -177 c 0
429 656 m 2
 418 685 l 2
 415 691 414 698 414 705 c 0
 414 727 427 748 449 756 c 0
 455 759 462 760 469 760 c 0
 491 760 512 747 520 725 c 2
 532 696 l 2
 534 690 536 683 536 677 c 0
 536 655 522 633 500 624 c 0
 493 621 487 621 480 621 c 0
 458 621 437 634 429 656 c 2
EndSplineSet
Validated: 1
EndChar

StartChar: k
Encoding: 107 107 74
Width: 1000
Flags: H
LayerCount: 2
Fore
SplineSet
709 37 m 0
 710 33 710 28 710 24 c 0
 710 -1 693 -23 667 -29 c 0
 663 -30 659 -31 655 -31 c 0
 630 -31 607 -13 601 12 c 0
 589 62 575 94 552 116 c 0
 534 133 508 146 472 157 c 1
 476 126 481 94 486 63 c 0
 486 60 487 57 487 54 c 0
 487 28 467 5 440 -0 c 0
 437 0 434 -1 431 -1 c 0
 404 -1 381 18 377 45 c 0
 357 169 344 294 332 404 c 0
 319 527 308 634 292 690 c 0
 291 695 290 700 290 705 c 0
 290 729 306 751 330 758 c 0
 335 759 340 760 345 760 c 0
 369 760 391 744 398 720 c 0
 413 668 423 589 434 490 c 1
 461 497 492 501 522 501 c 0
 564 501 606 493 639 473 c 0
 673 452 696 421 701 383 c 0
 702 377 702 370 702 364 c 0
 702 312 673 264 618 226 c 0
 613 223 608 219 603 216 c 1
 612 210 619 203 627 196 c 0
 666 159 692 108 709 37 c 0
586 346 m 0
 592 356 593 362 592 367 c 0
 592 370 590 374 582 379 c 0
 568 387 547 391 522 391 c 0
 497 391 470 387 446 379 c 1
 450 345 453 311 457 275 c 1
 493 283 529 298 555 316 c 0
 569 326 580 336 586 346 c 0
EndSplineSet
Validated: 1
EndChar

StartChar: l
Encoding: 108 108 75
Width: 1000
Flags: H
LayerCount: 2
Fore
SplineSet
701 136 m 0
 707 127 710 117 710 107 c 0
 710 89 701 71 685 60 c 0
 684 59 659 43 627 27 c 0
 587 7 556 -2 529 -2 c 0
 521 -2 512 -1 505 1 c 0
 483 6 466 20 456 39 c 0
 427 93 413 154 413 226 c 0
 413 228 413 231 413 233 c 0
 414 296 426 362 437 426 c 0
 449 494 462 564 462 632 c 1
 429 620 391 606 351 602 c 0
 349 602 348 602 346 602 c 0
 318 602 293 623 290 651 c 0
 290 653 290 654 290 656 c 0
 290 684 311 709 339 712 c 0
 370 715 407 729 437 740 c 0
 468 752 491 760 513 760 c 0
 541 760 564 739 567 712 c 0
 570 687 571 662 571 637 c 0
 571 558 558 482 545 407 c 0
 533 341 523 281 523 225 c 0
 523 185 528 146 543 111 c 1
 552 114 564 118 583 128 c 0
 606 140 625 152 625 152 c 0
 634 158 644 161 654 161 c 0
 672 161 690 152 701 136 c 0
EndSplineSet
Validated: 1
EndChar

StartChar: m
Encoding: 109 109 76
Width: 1000
Flags: HO
LayerCount: 2
Fore
SplineSet
469 500 m 0
 503.418308571 500 521.208623157 480.54874182 536 455 c 1
 547 480 559 495 574 504 c 0
 584 510 595 513 606 513 c 0
 613 513 620 512 627 509 c 0
 657 497 669 466 672 456 c 0
 688.331770544 402.921745733 693.235129097 351.82575719 699 274 c 0
 707 179 710 80 710 53 c 0
 709 23 685 -1 655 -1 c 2
 654 -1 l 1
 624 0 599 25 600 55 c 0
 600 74 598 145 593 222 c 1
 586 184 582 156 582 156 c 1
 577.558876046 124.912132321 553.391438633 110.328363205 528.938719249 110.328363205 c 0
 501.153528722 110.328363205 473 129.158011596 473 164 c 0
 473 166 473 168 473 170 c 0
 474 181 475 194 475 208 c 0
 475 233 473 262 469 291 c 1
 454.246272438 227.067180567 442 115.541911889 442 69 c 0
 442 63 442 58 442 53 c 0
 442 18.4066904795 414.613586688 0.477956091131 387.124492738 0.477956091131 c 0
 361.298808972 0.477956091131 335.382495334 16.3025451078 332 49 c 0
 320.928676082 159.71323918 318.212654902 327.564144444 293 399 c 0
 291 405 290 411 290 417 c 0
 290 444.641520631 311.297062882 472 345 472 c 0
 367 472 387 458 396 437 c 1
 411.239654615 471.635578669 428.072373251 500 469 500 c 0
EndSplineSet
Validated: 524321
EndChar

StartChar: n
Encoding: 110 110 77
Width: 1000
Flags: H
LayerCount: 2
Fore
SplineSet
704 81 m 0
 708 73 710 64 710 56 c 0
 710 36 699 17 680 7 c 0
 672 3 664 0 655 0 c 0
 635 0 616 11 606 30 c 0
 589 62 585 110 579 172 c 0
 574 226 567 289 552 335 c 0
 539 376 524 389 514 393 c 1
 509 386 501 371 492 340 c 0
 483 308 475 268 468 219 c 0
 456 134 452 54 452 53 c 0
 451 24 428 1 399 0 c 0
 398 0 398 0 397 -0 c 0
 369 0 346 21 343 49 c 0
 338 89 335 132 332 172 c 0
 328 224 324 273 318 313 c 0
 310 366 301 382 299 386 c 0
 293 395 290 406 290 416 c 0
 290 434 298 451 314 462 c 0
 323 468 334 471 345 471 c 0
 363 471 380 463 391 447 c 0
 396 439 400 431 404 421 c 1
 419 455 434 471 447 482 c 0
 465 497 485 505 507 505 c 0
 511 505 514 504 518 504 c 0
 555 499 586 482 611 454 c 0
 630 432 645 405 657 369 c 0
 676 311 682 243 688 183 c 0
 690 157 693 133 696 113 c 0
 700 89 703 82 704 81 c 0
EndSplineSet
Validated: 1
EndChar

StartChar: o
Encoding: 111 111 78
Width: 1000
Flags: H
LayerCount: 2
Fore
SplineSet
663 388 m 0
 693 339 710 282 710 230 c 0
 710 172 686 113 645 68 c 0
 603 22 549 -5 496 -5 c 0
 444 -5 392 21 353 67 c 0
 312 114 290 179 290 248 c 0
 290 307 313 368 352 417 c 0
 393 469 446 499 496 499 c 0
 514 499 530 490 540 476 c 0
 541 476 541 476 542 476 c 0
 567 476 591 466 615 446 c 0
 632 431 649 411 663 388 c 0
564 142 m 0
 587 167 600 199 600 230 c 0
 600 258 591 291 575 321 c 0
 565 338 555 351 548 358 c 1
 547 356 546 353 544 350 c 0
 534 331 515 321 495 321 c 0
 486 321 477 323 469 327 c 0
 457 333 449 344 444 356 c 1
 442 354 440 351 438 349 c 0
 414 319 400 282 400 248 c 0
 400 205 413 167 437 139 c 0
 451 123 473 105 496 105 c 0
 517 105 544 119 564 142 c 0
EndSplineSet
Validated: 1
EndChar

StartChar: p
Encoding: 112 112 79
Width: 1000
Flags: H
LayerCount: 2
Fore
SplineSet
599 231 m 0
 600 238 600 245 600 251 c 0
 600 350 524 381 457 389 c 0
 455 389 453 389 451 389 c 0
 433 389 422 378 419 372 c 0
 418 369 416 367 415 365 c 0
 422 302 425 231 427 156 c 1
 428 155 l 1
 442 129 453 116 512 109 c 0
 518 109 538 117 559 142 c 0
 582 168 596 201 599 231 c 0
657 406 m 0
 692 364 710 311 710 251 c 0
 710 241 709 231 708 220 c 0
 704 185 693 148 673 114 c 0
 655 83 632 56 606 36 c 0
 575 12 544 -1 513 -1 c 0
 508 -1 503 -1 498 -0 c 0
 471 3 449 8 430 15 c 1
 430 -8 430 -32 430 -56 c 0
 430 -98 431 -141 432 -184 c 0
 432 -214 407 -240 377 -240 c 0
 347 -240 322 -216 322 -186 c 0
 321 -143 320 -99 320 -57 c 0
 318 139 317 324 291 445 c 0
 290 449 290 453 290 457 c 0
 290 483 307 505 333 510 c 0
 337 511 341 511 345 511 c 0
 364 511 381 502 391 487 c 1
 410 495 431 500 452 500 c 0
 458 500 465 500 471 499 c 0
 511 494 547 483 578 468 c 0
 610 452 636 431 657 406 c 0
EndSplineSet
Validated: 1
EndChar

StartChar: q
Encoding: 113 113 80
Width: 1000
Flags: H
LayerCount: 2
Fore
SplineSet
704 -160 m 0
 708 -168 710 -177 710 -185 c 0
 710 -205 699 -224 680 -234 c 0
 672 -238 663 -240 655 -240 c 0
 635 -240 616 -229 606 -210 c 0
 580 -159 571 -85 567 2 c 1
 550 -4 532 -7 513 -7 c 0
 482 -7 453 -2 426 6 c 0
 391 17 361 33 339 56 c 0
 305 90 290 134 290 187 c 0
 290 261 329 342 395 409 c 0
 455 469 524 505 580 505 c 0
 586 505 591 505 596 503 c 0
 601 504 606 505 611 505 c 0
 629 502 l 0
 650 495 665 477 667 455 c 0
 671 415 673 372 674 330 c 0
 675 324 676 317 677 311 c 0
 684 266 691 229 691 203 c 0
 691 172 685 141 675 114 c 1
 675 -1 679 -110 704 -160 c 0
565 176 m 0
 565 224 565 272 564 320 c 0
 560 346 556 370 554 389 c 1
 531 380 501 360 473 331 c 0
 427 284 400 230 400 185 c 0
 400 183 l 0
 400 154 409 141 417 133 c 0
 435 114 471 103 513 103 c 0
 531 103 547 112 559 128 c 0
 561 131 563 134 565 137 c 0
 565 150 565 163 565 176 c 0
EndSplineSet
Validated: 1
EndChar

StartChar: r
Encoding: 114 114 81
Width: 1000
Flags: H
LayerCount: 2
Fore
SplineSet
670 484 m 0
 694 477 710 455 710 431 c 0
 710 426 709 421 708 416 c 0
 701 392 679 376 655 376 c 0
 650 376 645 377 640 378 c 0
 615 385 592 389 571 389 c 0
 560 389 551 388 541 386 c 0
 518 382 501 374 486 359 c 0
 463 336 449 299 444 252 c 0
 443 242 443 232 443 221 c 0
 443 199 445 175 448 150 c 0
 453 122 459 94 465 69 c 0
 466 65 467 60 467 56 c 0
 467 31 450 9 425 2 c 0
 420 1 416 0 411 0 c 0
 387 0 365 17 358 41 c 0
 349 73 343 105 339 135 c 0
 337 149 334 161 332 175 c 0
 321 236 310 299 294 342 c 0
 291 348 290 355 290 362 c 0
 290 384 303 405 325 413 c 0
 332 416 338 417 345 417 c 0
 358 417 371 412 381 403 c 1
 389 415 398 427 408 437 c 0
 439 468 490 499 568 499 c 0
 598 499 632 494 670 484 c 0
EndSplineSet
Validated: 1
EndChar

StartChar: s
Encoding: 115 115 82
Width: 1000
Flags: H
LayerCount: 2
Fore
SplineSet
681 207 m 0
 700 183 710 159 710 133 c 0
 710 103 699 76 677 54 c 0
 661 39 640 27 615 17 c 0
 565 -2 510 -4 494 -4 c 0
 450 -4 421 -2 397 4 c 0
 365 11 339 26 319 47 c 0
 309 58 304 71 304 84 c 0
 304 98 310 113 321 124 c 0
 332 134 345 140 359 140 c 0
 373 140 387 134 398 123 c 0
 411 110 445 106 494 106 c 0
 518 106 544 110 565 116 c 0
 587 122 596 130 599 133 c 1
 597 137 588 150 556 171 c 0
 525 191 485 211 447 230 c 0
 412 248 380 264 354 281 c 0
 338 291 325 301 316 311 c 0
 299 329 290 348 290 369 c 0
 290 383 295 404 318 423 c 0
 326 429 335 435 348 441 c 0
 372 453 401 463 422 469 c 0
 470 484 539 500 585 500 c 0
 615 500 640 475 640 445 c 0
 640 415 615 390 585 390 c 0
 562 390 518 382 474 370 c 0
 460 366 449 363 438 359 c 1
 455 349 476 339 497 328 c 0
 542 305 589 282 627 255 c 0
 650 239 668 223 681 207 c 0
EndSplineSet
Validated: 1
EndChar

StartChar: t
Encoding: 116 116 83
Width: 1000
Flags: H
LayerCount: 2
Fore
SplineSet
678 205 m 0
 698 196 710 176 710 155 c 0
 710 147 709 140 705 132 c 0
 685 89 659 55 627 33 c 0
 595 10 557 -1 515 -1 c 0
 481 -1 443 4 412 37 c 0
 388 63 374 100 364 164 c 0
 364 165 364 167 364 168 c 0
 362 191 361 215 361 241 c 0
 361 256 362 271 362 286 c 1
 356 286 351 285 345 285 c 0
 315 285 290 310 290 340 c 0
 290 370 315 395 345 395 c 0
 352 395 359 396 367 396 c 1
 369 424 372 451 374 479 c 0
 380 549 385 615 385 669 c 0
 385 682 384 694 384 705 c 0
 384 734 407 759 436 760 c 0
 437 760 437 760 438 760 c 0
 467 760 493 736 494 707 c 0
 494 696 495 686 495 674 c 0
 495 615 489 545 483 471 c 0
 482 452 480 433 479 414 c 1
 484 415 489 417 494 418 c 0
 537 430 580 448 623 470 c 0
 631 474 640 476 649 476 c 0
 669 476 687 466 697 447 c 0
 701 439 703 430 703 421 c 0
 703 401 693 383 674 373 c 0
 625 347 574 326 525 312 c 0
 507 307 490 303 472 299 c 1
 471 280 471 260 471 242 c 0
 471 219 471 198 473 178 c 0
 482 121 492 112 493 111 c 0
 494 111 497 109 515 109 c 0
 566 109 590 146 605 178 c 0
 614 198 634 210 655 210 c 0
 663 210 670 209 678 205 c 0
EndSplineSet
Validated: 1
EndChar

StartChar: u
Encoding: 117 117 84
Width: 1000
Flags: H
LayerCount: 2
Fore
SplineSet
694 110 m 0
 705 100 710 86 710 72 c 0
 710 58 705 44 694 33 c 0
 683 22 669 16 655 16 c 0
 641 16 627 22 616 32 c 0
 602 46 590 64 581 85 c 1
 565 54 547 32 527 17 c 0
 507 2 485 -6 463 -6 c 0
 458 -6 455 -6 450 -5 c 0
 392 3 346 37 319 95 c 0
 297 143 290 202 290 254 c 0
 290 277 291 298 293 317 c 0
 298 373 312 445 329 473 c 0
 339 490 357 499 375 499 c 0
 385 499 396 496 405 490 c 0
 421 479 431 461 431 443 c 0
 431 434 428 425 423 416 c 0
 418 405 405 356 401 294 c 0
 400 280 400 268 400 255 c 0
 400 204 408 162 422 135 c 0
 434 113 449 106 461 104 c 1
 468 110 495 139 524 253 c 0
 543 328 552 400 552 401 c 0
 556 429 579 449 606 449 c 0
 607 449 609 449 610 449 c 0
 639 447 662 423 662 394 c 0
 662 380 662 364 662 350 c 0
 662 329 662 307 662 286 c 0
 662 254 662 224 666 196 c 0
 673 139 687 117 694 110 c 0
EndSplineSet
Validated: 1
EndChar

StartChar: v
Encoding: 118 118 85
Width: 1000
Flags: H
LayerCount: 2
Fore
SplineSet
655 500 m 0
 685 500 710 475 710 445 c 0
 710 371 701 291 685 223 c 0
 662 127 627 56 579 14 c 0
 569 5 555 0 542 0 c 0
 530 0 517 5 507 13 c 0
 498 21 473 40 394 176 c 0
 356 242 314 320 295 362 c 0
 291 370 290 377 290 385 c 0
 290 406 302 426 322 435 c 0
 330 439 337 440 345 440 c 0
 366 440 386 428 395 408 c 0
 410 375 447 305 488 234 c 0
 511 194 529 166 542 146 c 1
 556 173 568 207 578 248 c 0
 598 333 600 414 600 445 c 0
 600 475 625 500 655 500 c 0
EndSplineSet
Validated: 1
EndChar

StartChar: w
Encoding: 119 119 86
Width: 1000
Flags: H
LayerCount: 2
Fore
SplineSet
698 368 m 0
 706 332 710 289 710 247 c 0
 710 230 709 213 708 196 c 0
 705 165 699 120 684 82 c 0
 660 22 623 6 596 3 c 0
 593 3 590 2 587 2 c 0
 569 2 542 8 517 36 c 0
 514 39 511 43 508 47 c 1
 499 32 490 20 479 11 c 0
 463 -2 445 -9 426 -9 c 0
 422 -9 416 -9 412 -8 c 0
 390 -5 361 6 336 41 c 0
 308 81 292 145 290 232 c 0
 290 239 290 247 290 254 c 0
 290 312 296 372 306 416 c 0
 312 442 334 459 359 459 c 0
 363 459 368 458 372 457 c 0
 398 451 415 429 415 404 c 0
 415 400 415 395 414 391 c 0
 407 360 400 307 400 252 c 0
 400 240 400 227 401 215 c 0
 403 182 407 153 414 132 c 0
 416 125 418 119 420 115 c 1
 424 124 428 138 433 157 c 0
 441 188 445 216 445 222 c 0
 446 249 467 272 494 275 c 0
 496 275 498 275 500 275 c 0
 526 275 548 258 554 233 c 0
 566 182 577 151 585 133 c 1
 587 138 588 144 590 151 c 0
 596 177 600 210 600 244 c 0
 600 280 597 317 591 346 c 0
 585 374 578 388 574 393 c 0
 553 401 540 422 540 444 c 0
 540 449 540 454 542 459 c 0
 549 483 570 498 594 498 c 0
 599 498 604 497 609 496 c 0
 652 484 682 441 698 368 c 0
EndSplineSet
Validated: 1
EndChar

StartChar: x
Encoding: 120 120 87
Width: 1000
Flags: H
LayerCount: 2
Fore
SplineSet
697 110 m 0
 705 100 709 87 709 75 c 0
 709 59 703 44 690 33 c 0
 680 24 667 20 655 20 c 0
 639 20 624 27 613 40 c 0
 582 77 552 119 523 161 c 1
 492 107 464 57 443 24 c 0
 433 8 415 -1 397 -1 c 0
 387 -1 376 2 367 8 c 0
 350 18 341 36 341 54 c 0
 341 64 344 75 350 84 c 0
 374 121 410 185 448 252 c 0
 450 256 452 259 454 263 c 0
 439 285 425 307 412 325 c 1
 407 315 402 302 398 289 c 0
 391 265 369 250 345 250 c 0
 340 250 334 250 329 252 c 0
 305 259 290 281 290 304 c 0
 290 309 290 315 292 320 c 0
 310 380 340 426 383 455 c 0
 393 461 403 465 414 465 c 0
 428 465 442 459 453 449 c 0
 470 432 490 405 514 370 c 1
 537 410 560 446 578 474 c 0
 589 490 606 498 624 498 c 0
 634 498 645 495 654 489 c 0
 670 478 678 461 678 443 c 0
 678 433 675 422 669 413 c 0
 645 377 615 325 583 268 c 1
 619 214 658 157 697 110 c 0
EndSplineSet
Validated: 1
EndChar

StartChar: y
Encoding: 121 121 88
Width: 1000
Flags: H
LayerCount: 2
Fore
SplineSet
706 170 m 0
 704 108 701 42 701 -21 c 0
 701 -77 703 -131 709 -179 c 0
 709 -181 709 -182 709 -184 c 0
 709 -212 688 -237 660 -240 c 0
 658 -240 656 -240 654 -240 c 0
 626 -240 603 -219 600 -191 c 0
 593 -137 591 -77 591 -15 c 0
 591 8 591 31 592 54 c 1
 560 29 522 17 476 17 c 0
 471 17 467 17 462 17 c 0
 412 20 370 45 340 90 c 0
 304 144 290 223 290 298 c 0
 290 362 300 423 315 464 c 0
 323 487 343 500 366 500 c 0
 372 500 379 499 385 497 c 0
 408 489 421 468 421 445 c 0
 421 439 420 432 418 426 c 0
 407 394 400 345 400 296 c 0
 400 293 400 289 400 286 c 0
 402 228 413 179 432 151 c 0
 445 131 458 128 468 127 c 0
 471 127 473 127 476 127 c 0
 494 127 508 130 519 137 c 0
 531 144 542 156 551 175 c 0
 575 223 587 302 599 386 c 0
 603 413 627 433 654 433 c 0
 655 433 655 433 656 433 c 0
 684 432 708 409 709 381 c 0
 710 364 710 346 710 327 c 0
 710 280 708 226 706 170 c 0
EndSplineSet
Validated: 1
EndChar

StartChar: z
Encoding: 122 122 89
Width: 1000
Flags: H
LayerCount: 2
Fore
SplineSet
642 343 m 0
 612 301 574 255 537 211 c 0
 511 180 483 147 459 116 c 1
 469 117 479 117 488 117 c 0
 504 117 519 116 534 114 c 0
 593 106 641 81 680 36 c 0
 689 26 693 13 693 0 c 0
 693 -16 687 -31 674 -42 c 0
 664 -51 652 -55 639 -55 c 0
 624 -55 608 -49 597 -36 c 0
 574 -9 547 7 491 7 c 0
 458 7 416 2 358 -10 c 0
 354 -11 351 -11 347 -11 c 0
 331 -11 316 -4 305 9 c 0
 297 19 292 32 292 44 c 0
 292 51 293 57 296 64 c 0
 320 124 384 201 452 282 c 0
 482 317 512 354 538 388 c 1
 516 385 495 384 473 384 c 0
 435 384 397 388 353 392 c 0
 348 392 344 394 339 394 c 0
 311 397 290 421 290 449 c 0
 290 451 290 452 290 454 c 0
 293 482 318 503 346 503 c 0
 348 503 349 503 351 503 c 0
 356 503 360 502 365 502 c 0
 409 498 444 494 476 494 c 0
 526 494 571 503 632 530 c 0
 639 533 646 534 654 534 c 0
 667 534 680 530 690 522 c 0
 703 511 710 495 710 479 c 0
 710 475 710 472 709 468 c 0
 702 434 681 396 642 343 c 0
EndSplineSet
Validated: 1
EndChar

StartChar: braceleft
Encoding: 123 123 90
Width: 1000
Flags: H
LayerCount: 2
Fore
SplineSet
664 -132 m 0
 669 -141 671 -149 671 -158 c 0
 671 -177 660 -196 642 -206 c 0
 597 -231 559 -240 529 -240 c 0
 492 -240 466 -226 447 -211 c 0
 407 -178 386 -121 386 -41 c 0
 386 -37 386 -34 386 -30 c 0
 387 26 398 92 417 158 c 1
 403 164 385 172 368 177 c 0
 346 184 330 205 330 230 c 0
 330 250 342 270 361 279 c 0
 388 292 416 307 434 319 c 1
 417 358 400 403 389 450 c 0
 381 483 378 514 378 542 c 0
 378 581 385 615 399 644 c 0
 413 672 432 697 458 716 c 0
 484 735 516 749 554 758 c 0
 559 759 564 760 568 760 c 0
 593 760 615 743 621 718 c 0
 622 714 623 709 623 705 c 0
 623 680 606 658 580 652 c 0
 537 642 511 623 498 596 c 0
 490 580 487 562 487 542 c 0
 487 466 532 370 549 333 c 0
 552 325 554 317 554 309 c 0
 554 296 550 282 542 270 c 0
 537 262 530 254 520 246 c 0
 515 242 510 238 504 234 c 1
 515 225 523 216 528 206 c 0
 533 196 535 187 535 177 c 0
 535 170 534 163 532 157 c 0
 510 90 497 23 496 -32 c 0
 496 -34 496 -36 496 -38 c 0
 496 -90 507 -117 517 -126 c 0
 520 -128 524 -129 530 -129 c 0
 544 -129 565 -123 589 -110 c 0
 598 -105 607 -103 616 -103 c 0
 635 -103 654 -114 664 -132 c 0
EndSplineSet
Validated: 1
EndChar

StartChar: bar
Encoding: 124 124 91
Width: 1000
Flags: H
LayerCount: 2
Fore
SplineSet
604 -176 m 0
 604 -179 605 -182 605 -185 c 0
 605 -211 585 -234 558 -239 c 0
 555 -239 553 -240 550 -240 c 0
 524 -240 499 -221 495 -194 c 0
 449 86 395 444 395 705 c 0
 395 733 418 758 447 760 c 0
 448 760 449 760 450 760 c 0
 478 760 503 737 505 708 c 0
 519 449 558 102 604 -176 c 0
EndSplineSet
Validated: 1
EndChar

StartChar: braceright
Encoding: 125 125 92
Width: 1000
Flags: H
LayerCount: 2
Fore
SplineSet
479 580 m 0
 479 630 467 650 421 650 c 0
 415 650 410 650 403 649 c 0
 401 649 400 649 398 649 c 0
 363 649 345 676 345 704 c 0
 345 729 360 755 392 758 c 0
 402 759 411 759 420 759 c 0
 480 759 520 740 549 707 c 0
 570 683 589 643 589 578 c 0
 589 545 584 507 572 461 c 0
 564 431 560 404 560 380 c 0
 560 328 576 294 617 284 c 0
 642 277 656 254 656 230 c 0
 656 212 648 193 629 183 c 0
 613 174 596 159 590 150 c 1
 614 82 626 22 626 -30 c 0
 626 -141 572 -212 486 -238 c 0
 481 -240 475 -240 470 -240 c 0
 436 -240 417 -212 417 -184 c 0
 417 -162 429 -140 455 -132 c 0
 498 -120 517 -86 517 -31 c 0
 517 9 506 60 485 117 c 0
 482 125 479 136 479 150 c 0
 479 170 485 196 507 223 c 1
 469 261 451 320 451 385 c 0
 451 419 456 455 465 490 c 0
 475 527 479 557 479 580 c 0
EndSplineSet
Validated: 1
EndChar

StartChar: asciitilde
Encoding: 126 126 93
Width: 1000
Flags: H
LayerCount: 2
Fore
SplineSet
708 429 m 0
 690 362 641 299 576 299 c 0
 557 299 538 304 517 316 c 0
 487 331 460 369 429 377 c 0
 427 378 424 378 422 378 c 0
 410 378 399 368 392 358 c 0
 380 339 363 331 347 331 c 0
 318 331 289 356 289 387 c 0
 289 399 294 412 304 424 c 1
 331 463 377 488 424 488 c 0
 440 488 455 485 471 479 c 0
 501 469 528 449 552 426 c 0
 560 418 567 413 575 410 c 1
 588 420 598 444 602 458 c 1
 602 458 l 1
 610 486 631 497 653 497 c 0
 681 497 710 477 710 444 c 0
 710 439 709 434 708 429 c 0
EndSplineSet
Validated: 1
EndChar
